<?xml version="1.0" encoding="utf-8"?>
<!-- Generator: Adobe Illustrator 18.1.1, SVG Export Plug-In . SVG Version: 6.00 Build 0)  -->
<!DOCTYPE svg PUBLIC "-//W3C//DTD SVG 1.1//EN" "http://www.w3.org/Graphics/SVG/1.1/DTD/svg11.dtd">
<svg version="1.1" id="Layer_1" xmlns="http://www.w3.org/2000/svg" xmlns:xlink="http://www.w3.org/1999/xlink" x="0px" y="0px"
	 viewBox="0 0 800 800" enable-background="new 0 0 800 800" xml:space="preserve">
<g>
	<g>
		<path fill="#EACEB9" d="M557.4,531.4L539.7,562c0,0-22.9-7.2-2.1-51.2c1-2.1,2.1-4.5,3.4-6.9c3.6,5.8,6.7,11.2,8.9,15.6
			C551.9,523.7,554.4,527.7,557.4,531.4z"/>
	</g>
	<g>
		<path fill="#EACEB9" d="M596.2,567.5l-27.5,47.7c0,0-22.9-7.2-2.1-51.2c2.1-4.5,4.7-9.6,7.6-15.3
			C581,554.6,588.6,560.7,596.2,567.5z"/>
	</g>
	<g>
		<path fill="#EACEB9" d="M645,602.7l-24.3,74.5c0,0-23.9-2.4-12.6-49.7c2.4-10,6.2-23.4,10.7-38.4
			C628.4,597.3,637.6,601.1,645,602.7z"/>
	</g>
	<g>
		<path fill="#A77346" d="M687.8,471.7l-42.8,131c-7.5-1.6-16.7-5.4-26.3-13.6c16.7-56.2,43.2-134.2,43.2-134.2l12.7,0.7
			L687.8,471.7z"/>
	</g>
	<g>
		<path fill="#77502D" d="M676.7,427.9l-80.5,139.6c-7.7-6.8-15.2-12.9-22-18.8c26.1-50.5,80.7-142.5,80.7-142.5l12.3,3.4
			L676.7,427.9z"/>
	</g>
	<g>
		<path fill="#634222" d="M647.7,374.8l-90.3,156.6c-2.9-3.7-5.5-7.7-7.5-11.9c-2.1-4.4-5.3-9.8-8.9-15.6
			C564.8,456,625.9,353,625.9,353l12.3,3.4L647.7,374.8z"/>
	</g>
	<g>
		<path fill="#6C4927" d="M630.1,336.6l-108,187.3c0,0-22.9-7.2-2.1-51.2c20.8-44,88.3-157.8,88.3-157.8l12.3,3.4L630.1,336.6z"/>
	</g>
	<g>
		<path fill="#6E4A28" d="M601.7,326l-108,187.3c0,0-22.9-7.2-2.1-51.2c20.8-44,88.3-157.8,88.3-157.8l12.3,3.4L601.7,326z"/>
	</g>
	<g>
		<path fill="#503416" d="M559.3,309.5l-74.3,203c0,0-37-21.2-24-68.1s25.1-107.9,25.1-107.9l60.7-43.6L559.3,309.5z"/>
	</g>
	<g>
		<path fill="#531516" d="M684.3,472c-5.8,15.4-52.9,142.4-66.3,199.1c-3.7-6.2-7.1-16.2-5.5-31.2c3.2-30.9,51.9-161.6,58.3-178.7
			c-2.5-1.5-5.1-2.7-8.3-3.8c-1.4-0.5-2.8-1.1-4.1-1.7c-5.6,14.8-55.9,149.3-59.3,182.8c-4,38,18.5,52.2,19.5,52.8l8.6,5.3l1.6-10
			c6.8-42.8,57.6-181,67.2-206.9C691.6,478.1,687.4,474.8,684.3,472z"/>
	</g>
	<g>
		<path fill="#531516" d="M650.8,447.4c-0.1,0-0.1-0.1-0.1-0.1C628.3,489,587,567.6,570.8,608.8c-2.8-6.7-4.7-17-1-31.7
			c5.7-22.5,44.5-96.7,67.4-139.4c-1-0.4-2.1-0.9-3-1.5c-2.8-1.7-4.7-3.8-7-6c-0.3-0.3-0.6-0.6-0.9-0.8
			c-23,42.8-63.4,119.9-69.6,144.4c-9.4,37.1,10.9,54.3,11.7,55l7.8,6.4l3-9.7c10.3-33.3,57.8-124,82.8-170.6
			C657.9,453,654.3,450.4,650.8,447.4z"/>
	</g>
	<g>
		<path fill="#531516" d="M547.8,489.8c-0.2,3.7-0.6,7.4-1.1,11.1c13.9-24.3,43-73.5,54.7-92.6c-1-0.5-2-1-3-1.7
			c-2.7-1.9-4.5-4-6.7-6.4c-0.3-0.3-0.6-0.6-0.9-0.9c-8.4,13.8-32.7,54.7-43.3,72.8C548.1,478.1,548.2,483.9,547.8,489.8z"/>
	</g>
	<g>
		<path fill="#531516" d="M611.9,419.3c-24.5,41.2-55.5,94.9-69.8,126.5c-0.9-2.5-5.3-12.1-5.6-15.6c-3.5,4.7-7,9.4-10.5,14.2
			c3.5,9.4,12.3,20.8,12.7,21.2l7.5,6.8l3.5-9.5c9.7-26.4,45.5-88.8,73.4-135.6C618.8,425.4,615,422.8,611.9,419.3z"/>
	</g>
	<g>
		<path fill="#531516" d="M550,426.6c4.3-8.7,14.9-29.7,18.9-37.5c-4.1-1.8-8.3-3.7-12.5-5.4c-3.8,7.6-14.3,28.2-18.4,36.5
			C542.6,421.2,546.7,423.2,550,426.6z"/>
	</g>
	<g>
		<path fill="#531516" d="M527.9,403.5c6.5-11.2,12.9-22.1,18.8-32.1c-4-2.1-8-4.3-12.1-6.3c-7,11.8-14.7,25-22.4,38.4
			c0.1,0.5,0.2,1,0.2,1.4C517.2,404.7,522.5,404,527.9,403.5z"/>
	</g>
	<g>
		<path fill="#531516" d="M497.3,398.7c6.5-11.2,20.8-35,26.7-45c-4-2.1-8-4.3-12.1-6.3c-7,11.8-14.7,25-22.4,38.4
			c0.1,0.5-7.8,13.9-7.7,14.3C486.6,399.8,491.9,399.2,497.3,398.7z"/>
	</g>
	<g>
		<path fill="#FFFFFF" d="M643.5,445.5c0,0-11,22.1-17.8,32.3"/>
		<path fill="#531516" d="M625.7,482.8c-1,0-1.9-0.3-2.8-0.9c-2.3-1.5-2.9-4.7-1.4-7c6.5-9.7,17.4-31.5,17.5-31.7
			c1.2-2.5,4.3-3.5,6.8-2.3c2.5,1.2,3.5,4.3,2.3,6.8c-0.5,0.9-11.2,22.5-18.1,32.8C628.9,482,627.3,482.8,625.7,482.8z"/>
	</g>
	<g>
		<path fill="#A77346" d="M110.8,471.7l67.1,205.5c0,0,23.9-2.4,12.6-49.7s-53.9-172.6-53.9-172.6l-12.7,0.8L110.8,471.7z"/>
	</g>
	<g>
		<path fill="#77502D" d="M121.8,427.9l108,187.3c0,0,22.9-7.2,2.1-51.2c-20.8-44-88.3-157.8-88.3-157.8l-12.3,3.4L121.8,427.9z"/>
	</g>
	<g>
		<path fill="#634222" d="M150.9,374.8l108,187.3c0,0,22.9-7.2,2.1-51.2c-20.8-44-88.3-157.8-88.3-157.8l-12.3,3.4L150.9,374.8z"/>
	</g>
	<g>
		<path fill="#EACEB9" d="M241.5,531.2l17.7,30.6c0,0,22.9-7.2,2.1-51.2c-1-2.1-2.1-4.5-3.4-6.9c-3.6,5.8-6.7,11.2-8.9,15.6
			C246.9,523.5,244.4,527.4,241.5,531.2z"/>
	</g>
	<g>
		<path fill="#EACEB9" d="M202.6,567.3l27.5,47.7c0,0,22.9-7.2,2.1-51.2c-2.1-4.5-4.7-9.6-7.6-15.3
			C217.8,554.4,210.3,560.5,202.6,567.3z"/>
	</g>
	<g>
		<path fill="#EACEB9" d="M153.8,602.5l24.3,74.5c0,0,23.9-2.4,12.6-49.7c-2.4-10-6.2-23.4-10.7-38.4
			C170.5,597.1,161.3,600.9,153.8,602.5z"/>
	</g>
	<g>
		<path fill="#6C4927" d="M168.5,336.6l108,187.3c0,0,22.9-7.2,2.1-51.2c-20.8-44-88.3-157.8-88.3-157.8l-12.3,3.4L168.5,336.6z"/>
	</g>
	<g>
		<path fill="#6E4A28" d="M196.8,326l108,187.3c0,0,22.9-7.2,2.1-51.2c-20.8-44-88.3-157.8-88.3-157.8l-12.3,3.4L196.8,326z"/>
	</g>
	<g>
		<path fill="#503416" d="M239.3,309.5l74.3,203c0,0,60.5-49.4,47.5-96.3s-13.7-82.5-13.7-82.5L251.8,293L239.3,309.5z"/>
	</g>
	<g>
		<path fill="#531516" d="M114.2,472c5.8,15.4,52.9,142.4,66.3,199.1c3.7-6.2,7.1-16.2,5.5-31.2c-3.2-30.9-53.3-165.3-59.7-182.4
			c2.5-1.5,5.5-1.4,8.7-2.5c1.4-0.5,3.8,1.3,5.1,0.7c5.6,14.8,55.9,149.3,59.3,182.8c4,38-18.5,52.2-19.5,52.8l-8.6,5.3l-1.6-10
			c-6.8-42.8-57.6-181-67.2-206.9C106.9,478.1,111.1,474.8,114.2,472z"/>
	</g>
	<g>
		<path fill="#531516" d="M147.7,447.4c0.1,0,0.1-0.1,0.1-0.1c22.4,41.7,63.7,120.3,79.9,161.4c2.8-6.7,4.7-17,1-31.7
			c-5.7-22.5-44.5-96.7-67.4-139.4c1-0.4,2.1-0.9,3-1.5c2.8-1.7,4.7-3.8,7-6c0.3-0.3,0.6-0.6,0.9-0.8c23,42.8,63.4,119.9,69.6,144.4
			c9.4,37.1-10.9,54.3-11.7,55l-7.8,6.4l-3-9.7c-10.3-33.3-57.8-124-82.8-170.6C140.6,453,144.2,450.4,147.7,447.4z"/>
	</g>
	<g>
		<path fill="#531516" d="M256.5,499.1c0.2,3.7,0.6,7.4,1.1,11.1c-13.9-24.3-48.8-82.8-60.4-101.9c1-0.5,2-1,3-1.7
			c2.7-1.9,4.5-4,6.7-6.4c0.3-0.3,0.6-0.6,0.9-0.9c8.4,13.8,38.5,64,49,82.1C256.2,487.4,256.1,493.2,256.5,499.1z"/>
	</g>
	<g>
		<path fill="#531516" d="M186.6,419.3c24.5,41.2,55.5,94.9,69.8,126.5c0.9-2.5,7.6-18.4,8-22c3.5,4.7,4.7,15.8,8.2,20.6
			c-3.5,9.4-12.3,20.8-12.7,21.2l-7.5,6.8l-3.5-9.5c-9.7-26.4-45.5-88.8-73.4-135.6C179.8,425.4,183.6,422.8,186.6,419.3z"/>
	</g>
	<g>
		<path fill="#531516" d="M253.7,433.7c-4.7-8.5-20.4-36.2-24.7-43.9c4.1-2,8.1-4.1,12.2-6c4.1,7.4,15.6,27.5,20,35.6
			C256.7,420.7,256.9,430.2,253.7,433.7z"/>
	</g>
	<g>
		<path fill="#531516" d="M270.6,403.5c-6.5-11.2-12.9-22.1-18.8-32.1c4-2.1,8-4.3,12.1-6.3c7,11.8,14.7,25,22.4,38.4
			c-0.1,0.5-0.2,1-0.2,1.4C281.3,404.7,276,404,270.6,403.5z"/>
	</g>
	<g>
		<path fill="#531516" d="M302.4,398.5c-6.9-10.9-22.4-34.1-28.7-43.8c3.9-2.3,7.8-4.6,11.8-6.8c7.5,11.5,15.8,24.4,24.1,37.4
			c-0.1,0.5,8.4,13.5,8.3,14C313.1,399.1,307.8,398.7,302.4,398.5z"/>
	</g>
	<g>
		<path fill="#531516" d="M335,396.9c-7.2-10.7-24-40.2-30.6-49.7c3.9-2.4,7.7-4.8,11.6-7.1c7.8,11.3,16.4,24,24.9,36.8
			c-0.1,0.5,8.7,13.3,8.7,13.8C344.9,390.7,340.5,397,335,396.9z"/>
	</g>
	<g>
		<path fill="#FFFFFF" d="M155.5,445.5c0,0,11,22.1,17.8,32.3"/>
		<path fill="#531516" d="M173.3,482.8c-1.6,0-3.2-0.8-4.2-2.2c-6.9-10.3-17.7-31.9-18.1-32.8c-1.2-2.5-0.2-5.5,2.3-6.8
			c2.5-1.2,5.5-0.2,6.8,2.3c0.1,0.2,11,22,17.5,31.7c1.5,2.3,0.9,5.5-1.4,7C175.2,482.5,174.3,482.8,173.3,482.8z"/>
	</g>
	<g>
		<path fill="#7F4A12" d="M137,144.6c0,0-32,29.2-34.1,44c-2.1,14.8-52.3,144.5-8.1,292.6c0,0,16.8-18.6,26.3-28.1
			c0,0,16.2,7.1,34.3-13.8c0,0,27.8-15.9,35.1-29.6c0,0,18.9-1.4,29.7-20.8c0,0,18.4-0.5,30.6-14.6c0,0,19.1-10.1,27.9-26.2
			c0,0,49.5-4.3,57.1-16.8c2.3-3.8-14.7-13-22.7-29.7c-18.7-39-42-100.8-42-100.8s-39.8,4.5-55-13.9c0,0-11.7-12-14.5-22.7
			c0,0-18.7-10.3-19.2-19.6l-27.7-14L137,144.6z"/>
	</g>
	<g>
		<path fill="#7F4A12" d="M663.7,144.6c0,0,32,29.2,34.1,44c2.1,14.8,51.1,144.5,6.9,292.6c0,0-15.6-18.6-25.1-28.1
			c0,0-16.2,7.1-34.3-13.8c0,0-27.8-15.9-35.1-29.6c0,0-18.9-1.4-29.7-20.8c0,0-18.4-0.5-30.6-14.6c0,0-19.1-10.1-27.9-26.2
			c0,0-25.9-3.3-33.6-15.8c-3.8-6.2-1.4-47.1,9.7-78.2c11.3-31.7,31.5-53.4,31.5-53.4s39.8,4.5,55-13.9c0,0,11.7-12,14.5-22.7
			c0,0,18.7-10.3,19.2-19.6l27.7-14L663.7,144.6z"/>
	</g>
	<g>
		<path fill="#5D3200" d="M494,259.2c0,0,13.4,2.1,19.3,7.2c0,0,16-3.5,18,6.8c2,10.3,8.9-33.7,8.9-33.7s16.8-0.9,22.3,18.7
			c0,0,5.9-38.5,26.9-26.3c0,0,12.2-36.9,30.8,2.3c0,0-1.7-68.8,20.6-29.4c0,0,6.2-43.2,27-14.1c0,0,25.1-0.3,39,32.1
			c0,0-9.1-56.6-37.5-74.7s-45.9-15.6-45.9-15.6L574.1,151c0,0-61,71-62.1,73.8C511,227.7,494,259.2,494,259.2z"/>
	</g>
	<g>
		<path fill="#5D3200" d="M302.2,259.2c0,0-13.4,2.1-19.3,7.2c0,0-16-3.5-18,6.8c-2,10.3-8.9-33.7-8.9-33.7s-16.6-45.7-22.3,18.7
			c0,0-12.4-80.6-26.9-26.3c0,0,5.1-94.3-31.3,18.2c0,0,37.1-165-26.2-24.2c0,0,24.6-81.4,0.7-69.6c0,0-46.6,34-60.5,66.4
			c0,0,9.1-56.6,37.5-74.7s40.4-21.1,40.4-21.1l54.8,24c0,0,61,71,62.1,73.8S302.2,259.2,302.2,259.2z"/>
	</g>
	<g>
		<path fill="#531516" d="M675.2,451.4c-0.7,0-1.4-0.1-2-0.4c-3.2-1.1-4.8-4.6-3.7-7.8c0.2-0.6,19.9-57.6,16.5-145.3
			c-3.3-84.3-51.5-161.4-51.9-162.2c-1.8-2.8-1-6.6,1.9-8.4c2.8-1.8,6.6-1,8.4,1.9c2.1,3.3,50.4,80.7,53.8,168.3
			c3.5,90.3-16.3,147.5-17.2,149.8C680.1,449.8,677.8,451.4,675.2,451.4z"/>
	</g>
	<g>
		<path fill="#985A1E" d="M461.8,215.6c0,0,73.2-30.3,72-67.6c-1.2-37.2,0.4-110.9,56-88.2s96,93.8,96,93.8s-41.6-18.2-47.8-26.1
			c-6.2-7.9-21.7,12.8-21.7,12.8s-5.4,18.4-16.6,19.9c-11.2,1.5-0.7,25.8-18.4,26.7c-17.6,0.9-10.5,24.1-23.7,23.8
			c-13.2-0.3-12.9,17.2-24.5,17.1s-22.1,20.4-37.2,20.4C480.8,248.3,461.8,215.6,461.8,215.6z"/>
	</g>
	<g>
		<path fill="#985A1E" d="M327,218c0,0-64.3-32.7-63.1-69.9c1.2-37.2-0.4-110.9-56-88.2s-92,88.2-92,88.2s37.6-12.6,43.8-20.5
			s21.7,12.8,21.7,12.8s5.4,18.4,16.6,19.9s3.8,19.6,21.4,20.5c17.6,0.9,7.4,30.3,20.6,30c13.2-0.3,12.9,17.2,24.5,17.1
			c11.6,0,7.8,22.3,22.9,22.3S327,218,327,218z"/>
	</g>
	<g>
		<path fill="#75430D" d="M314.2,301.1c0,0,3.3,31.2,31.2,40.3l13,47.2c0,0,15.7,5.9,19.9,9.6c4.2,3.6,90-2.1,90-2.1
			s35-128.1,28.7-159.9c-2.2-11.3-54.6-15.6-19.5-30c-11.8-22.7-29.8-42.5-51.2-42c0,0,19.1,86.6-23.4,117.6s-50.1,5.6-50.1,5.6
			S334.5,306.7,314.2,301.1z"/>
	</g>
	<g>
		<path fill="#DDA233" d="M326.6,210.4c0,0-17.4,4.9-20.4,6.2c-3,1.4-5.4-10.7-7.9-10.5s-4.6,1.9-13.2-3.1c-8.5-5-5.4-13.8-5.4-13.8
			s-14.9-4-16.7-7.2c-1.8-3.2,0-24.8,0-24.8s-7.8-16-21.7-6.1c-4.1,2.9,12.4-26.5,14.2-41c1.8-14.5-29.9,1.7-31.9-4.3
			c-2.1-6,2.8-21.2,1-23.8c-2.2-3.1-16.5,6.1-21.7,7.1c-5.2,1-1.9-15.7-1.9-15.7s-40.1,21-47.5,27.8s13.9-21.4,13.9-21.4
			s34.3-26.2,61.9-22.3c27.6,3.9,39,25.5,38.3,44.2c-0.7,18.7-6.7,51.1,8.6,68S312.9,208,326.6,210.4z"/>
	</g>
	<g>
		<path fill="#531516" d="M280.5,347.1c-2.6,0-5-1.7-5.8-4.3c-8.9-28.9-22.3-72.5-17.7-113.7c0.4-3.3,3.4-5.8,6.7-5.4
			c3.3,0.4,5.8,3.4,5.4,6.7c-4.3,38.6,8.6,80.8,17.2,108.7c1,3.2-0.8,6.6-4,7.6C281.7,347,281.1,347.1,280.5,347.1z"/>
	</g>
	<g>
		<line fill="#D3C7B6" x1="341.3" y1="280.2" x2="368.2" y2="294.3"/>
	</g>
	<g>
		<path d="M288.8,197l-4.1,5.4c-2.5,3.3-2.4,8,0.6,10.8c3.4,3.2,8.8,2.7,11.6-0.9l4.4-5.7c2.1-2.8,6-3.3,8.8-1.2v0
			c2.8,2.1,3.3,6,1.2,8.8l-3.9,5.2c-6.3,8.2-17.8,11.1-26.8,5.9c-10.9-6.3-13.4-20.5-6.1-30.1l4.4-5.7c2.1-2.8,6-3.3,8.8-1.2l0,0
			C290.3,190.3,290.9,194.2,288.8,197z"/>
	</g>
	<g>
		<path fill="#531516" d="M290,225.1l-4.4,5.8c-2.7,3.5-2.6,8.7,0.6,11.7c3.7,3.5,9.5,2.9,12.5-1l4.7-6.2c2.3-3,6.5-3.5,9.5-1.3l0,0
			c3,2.3,3.5,6.5,1.3,9.5l-4.2,5.6c-6.8,8.9-19.2,11.9-28.9,6.3c-11.7-6.8-14.5-22.1-6.5-32.4l4.7-6.2c2.3-3,6.5-3.5,9.5-1.3v0
			C291.7,217.8,292.2,222.1,290,225.1z"/>
	</g>
	<g>
		<path fill="#531516" d="M345.8,326.8c-1.8-2.8-5.6-3.6-8.4-1.8c-14.8,9.6-23.4,6.4-23.6,6.3l-3.6-1.6l-3,2.6
			c-12.5,11.2-25,7.8-25.5,7.6l-5.5-1.7l-2.1,5.3c-5.7,14.7-11.1,18.6-13.7,19.5c-2.1,0.8-3.5,0.1-3.5,0.1l-6.6-5.4l-2.6,8.6
			c-6,19.7-24.1,16.9-26.1,16.6l-4.7-0.9l-2,4.4c-9.1,20-22.3,17.5-22.7,17.4l-5.1-1.3l-2,4.8c-5.1,12.4-10.7,17.2-14.6,19.1
			c-3.6,1.8-5.6,0.2-6.3-0.5l-6.9-8.2l-3.6,10.1c-5.6,15.7-14.5,22.2-18.1,22.2c0,0,0,0-0.1,0c-3.8-0.1-5.3-5.1-5.3-5.2l-4.5-15.8
			l-6.9,15c-4.6,10-13.6,24.4-21.1,29.6c-5.3-14.1-13-68.4-15.1-94.6c-6.8-83.6,6.6-164,37.7-226.4c25.8-51.7,61.3-86.1,92.8-89.8
			c17.1-2,28.8-0.1,35.7,5.7c9.9,8.4,10.7,26.1,11.6,46.7c0.5,11.3,1.1,24.1,3.3,36.9c9.4,53.8,67.3,66.7,75.6,66.7c0,0,0.1,0,0.1,0
			c3.4,0,6.2-2.8,6.1-6.2c0-3.3-2.6-6-6-6c0,0,0,0-0.1,0c-0.5,0-55.4-8.5-63.7-56.6c-2.1-12-2.6-23.8-3.1-35.3
			c-1-23.4-1.9-43.6-15.8-55.4c-9.6-8.2-24.3-11-45-8.5c-35.6,4.1-74.8,41.1-102.3,96.5c-32,64.3-45.9,147-39,232.8
			c0.8,9.8,3.5,33.9,7.1,56.7c7,44.4,11.4,47.5,14.1,49.3c1.3,0.9,2.8,1.3,4.3,1.3c0.7,0,1.4-0.1,2-0.3
			c11.3-3.3,21.5-18.4,27.2-28.5c2.7,2.2,6.2,3.7,10.2,3.8c10,0.3,20.3-9,27.1-23.5c3.7,1.1,8.3,1.2,13.4-1.3
			c7.3-3.7,13.6-10.8,18.6-21.3c7.1-0.1,20-3.1,29.5-20.6c10.3,0.4,25.7-3.3,33.3-19.9c1.9,0.2,4.1,0,6.6-0.8
			c7.7-2.4,14.4-9.9,19.9-22.2c6.5,0.6,17.7-0.2,29.1-9c5.6,1,16.6,1.1,31.3-8.4C346.8,333.4,347.6,329.7,345.8,326.8z"/>
		<path fill="#531516" d="M208.4,182.5c3.3,1.9,6.9,2.6,10.5,2.4c0,7.3,3.6,14.5,10.6,18.6c9.3,5.4,21.3,2.5,27.9-6.1l4.1-5.4
			c2.2-2.9,1.6-7-1.2-9.1c-2.9-2.2-7-1.6-9.1,1.2l-4.5,5.9c-2.9,3.8-8.5,4.3-12.1,1c-3.1-2.9-3.2-7.9-0.6-11.3l4.2-5.6
			c1.2-1.5,1.5-3.4,1.2-5.1c0.5-2.3-0.3-4.8-2.3-6.2c-2.7-2-6.5-1.5-8.6,1.2l-4.2,5.6c-2.7,3.6-8,4.1-11.3,1
			c-2.9-2.7-3.1-7.4-0.7-10.6l2.3-3c0.8-0.8,1.5-1.6,2.2-2.4l3.8-5.1c0.5-0.7,0.9-1.5,1.1-2.4c7.5,1.4,15.5-1.7,20.3-8.1l3.8-5.1
			c2-2.7,1.5-6.5-1.2-8.6c-2.7-2-6.5-1.5-8.6,1.2l-4.2,5.6c-2.7,3.6-8,4.1-11.3,1c-2.9-2.7-3.1-7.4-0.7-10.6l3.9-5.3
			c0.1-0.1,0.1-0.2,0.2-0.4l3.7-4.9c0.3-0.5,0.6-1,0.8-1.5c8.3,3,17.8,0,23.3-7.3l3.8-5.1c2-2.7,1.5-6.5-1.2-8.6
			c-2.7-2-6.5-1.5-8.6,1.2l-4.2,5.6c-2.7,3.6-8,4.1-11.3,1c-2.9-2.7-3.1-7.4-0.7-10.6l3.9-5.3c2-2.7,1.5-6.5-1.2-8.6
			c-2.7-2-6.5-1.5-8.6,1.2l-4.2,5.6c-5.3,7.1-5.2,16.6-0.3,23.5c-0.5,0.3-0.9,0.7-1.3,1.2l-4.2,5.6c-2.7,3.6-8,4.1-11.3,1
			c-2.9-2.7-3.1-7.4-0.7-10.6l3.9-5.3c2-2.7,1.5-6.5-1.2-8.6c-2.7-2-6.5-1.5-8.6,1.2l-4.2,5.6c-5.7,7.6-5.1,17.9,0.8,24.8l-4,5.4
			c-2.7,3.6-8,4.1-11.3,1c-2.9-2.7-3.1-7.4-0.7-10.6l3.9-5.3c2-2.7,1.5-6.5-1.2-8.6c-2.7-2-6.5-1.5-8.6,1.2l-4.2,5.6
			c-7.1,9.5-4.4,23.3,6.2,29.3c2.4,1.3,4.9,2.1,7.4,2.3c-1.1,7.9,2.6,16.4,10.5,20.9c2.6,1.5,5.4,2.3,8.2,2.6
			C197.5,170.5,201,178.3,208.4,182.5z M194.6,148.5c-3.1-2.8-3.2-7.5-0.8-10.7l3.9-5.3c0.4-0.5,0.7-1.1,0.9-1.7l3.6-4.8
			c0.2-0.2,0.3-0.4,0.4-0.7c1,0.2,2.1,0.4,3.2,0.5c-0.6,5.6,1.3,11.3,5.3,15.6c-0.2,0.2-0.4,0.4-0.6,0.6l-4.2,5.6
			C203.5,151.2,198.1,151.7,194.6,148.5z"/>
	</g>
	<g>
		<path fill="#531516" d="M243,138.2l-4.3,5.6c-2.6,3.4-2.6,8.4,0.5,11.3c3.6,3.4,9.2,2.8,12.1-1.1l4.6-6c2.2-2.9,6.3-3.5,9.2-1.3v0
			c2.9,2.2,3.4,6.3,1.2,9.2l-4.1,5.4c-6.6,8.7-18.6,11.7-27.9,6.3c-11.3-6.5-13.8-21.3-6.1-31.4l4.6-6c2.2-2.9,6.3-3.5,9.2-1.3l0,0
			C244.7,131.2,245.2,135.3,243,138.2z"/>
	</g>
	<g>
		<path fill="#531516" d="M103.4,188.1c-1,0-2.1-0.3-3-0.8c-2.9-1.7-3.9-5.4-2.2-8.3c30.6-53.2,59.7-59.3,60.9-59.5
			c3.3-0.6,6.5,1.5,7.1,4.8c0.6,3.3-1.5,6.5-4.8,7.1c-0.6,0.1-25.4,6.3-52.7,53.6C107.6,187,105.5,188.1,103.4,188.1z"/>
	</g>
	<g>
		<path fill="#531516" d="M123.7,451.4c-2.5,0-4.9-1.6-5.7-4.1c-0.8-2.4-20.7-59.6-17.2-149.8c3.4-87.6,51.8-165,53.8-168.3
			c1.8-2.8,5.6-3.7,8.4-1.9c2.8,1.8,3.7,5.6,1.9,8.4c-0.5,0.8-48.7,78-51.9,162.2c-3.4,88,16.3,144.7,16.5,145.3
			c1.1,3.2-0.5,6.7-3.7,7.8C125.1,451.3,124.4,451.4,123.7,451.4z"/>
	</g>
	<g>
		<path fill="#531516" d="M159.5,439.8c-2.6,0-5-1.6-5.8-4.2c-26.9-82.9-34.8-201.9,23.8-287.3c1.9-2.8,5.7-3.5,8.5-1.6
			c2.8,1.9,3.5,5.7,1.6,8.5c-56.1,81.8-48.3,196.5-22.3,276.6c1,3.2-0.7,6.6-3.9,7.7C160.8,439.7,160.1,439.8,159.5,439.8z"/>
	</g>
	<g>
		<path fill="#531516" d="M189.3,416.3c-2.5,0-4.9-1.6-5.8-4.1c-28.3-82-23.2-168.8,14.4-244.5c1.5-3,5.2-4.3,8.2-2.7
			c3,1.5,4.2,5.2,2.7,8.2c-36.1,72.7-41,156.2-13.8,235.1c1.1,3.2-0.6,6.7-3.8,7.8C190.6,416.2,189.9,416.3,189.3,416.3z"/>
	</g>
	<g>
		<path fill="#531516" d="M221.4,396c-2.6,0-5-1.7-5.8-4.3c-17.2-56.1-32.8-130.7,0.2-211c1.3-3.1,4.8-4.6,8-3.3
			c3.1,1.3,4.6,4.8,3.3,8c-31.5,76.7-16.4,148.6,0.2,202.8c1,3.2-0.8,6.6-4,7.6C222.6,396,222,396,221.4,396z"/>
	</g>
	<g>
		<path fill="#531516" d="M252.2,371.9c-2.6,0-5.1-1.7-5.8-4.4c-18-60.5-22.2-112.6-13.1-163.8c0.6-3.3,3.8-5.5,7.1-4.9
			c3.3,0.6,5.5,3.8,4.9,7.1c-8.8,49.3-4.7,99.5,12.7,158.2c1,3.2-0.9,6.6-4.1,7.6C253.4,371.8,252.8,371.9,252.2,371.9z"/>
	</g>
	<g>
		<path fill="#531516" d="M313.1,342.6c-2.3,0-4.5-1.2-5.5-3.3c-11.3-22.4-22.5-62.4-24.5-87.4c-0.3-3.1,2.3-5.8,5.6-6
			c3.3-0.3,6.3,2.1,6.5,5.2c1.9,23.5,12.9,62.5,23.4,83.5c1.4,2.8,0.1,6.2-3,7.5C314.8,342.4,314,342.6,313.1,342.6z"/>
	</g>
	<g>
		<path fill="#FFFFFF" d="M155.5,331.4c0,0,2.6,24.6,5.4,36.4"/>
		<path fill="#531516" d="M160.9,372.9c-2.3,0-4.4-1.6-4.9-3.9c-2.8-12-5.4-36-5.5-37.1c-0.3-2.8,1.7-5.3,4.5-5.6
			c2.8-0.3,5.3,1.7,5.6,4.5c0,0.2,2.6,24.4,5.3,35.8c0.6,2.7-1,5.4-3.8,6.1C161.7,372.9,161.3,372.9,160.9,372.9z"/>
	</g>
	<g>
		<path fill="#FFFFFF" d="M93.9,401.4c0,0,2.6,24.6,5.4,36.4"/>
		<path fill="#531516" d="M99.3,442.9c-2.3,0-4.4-1.6-4.9-3.9c-2.8-12-5.4-36-5.5-37.1c-0.3-2.8,1.7-5.3,4.5-5.6
			c2.8-0.3,5.3,1.7,5.6,4.5c0,0.2,2.6,24.4,5.3,35.8c0.6,2.7-1,5.4-3.8,6.1C100,442.9,99.6,442.9,99.3,442.9z"/>
	</g>
	<g>
		<path fill="#DDA233" d="M327,298.2c0,0,11.3,24.3,29.1,18.8l19.3,20.7c0,0,1.1,14.5,5.1,39.5l1.3,14.8l-20-0.6l-17-51.2
			c0,0-33.1-25.7-34.4-39.6C308.9,286.7,327,298.2,327,298.2z"/>
	</g>
	<g>
		<path fill="#BFABA2" d="M539.9,479.9c-0.1,0.3-0.2,0.6-0.2,0.9c0,3.3-0.4,6.5-0.9,9.7c-0.5,3.2-1,6.5-1.7,9.7
			c-0.8,3.5-1.7,6.9-2.7,10.3c-0.9,3.2-2,6.5-3.1,9.6c-1.4,3.9-3,7.7-4.6,11.4c-1.6,3.6-3.3,7.2-5.1,10.8c-2,3.9-4.1,7.8-6.4,11.5
			c-2.8,4.7-5.7,9.3-8.8,13.9c-3.3,4.9-6.8,9.6-10.4,14.3c-3.2,4.3-6.6,8.4-10.1,12.5c-6.7,8-13.8,15.5-21.1,22.9
			c-5,5-10.1,9.9-15.4,14.6c-4.1,3.7-8.3,7.3-12.5,10.9c-9,7.5-18.3,14.7-28.2,20.9c-2.6,1.6-5.3,3.1-8.1,4.3
			c-0.8,0-1.4-0.1-2.2-0.1L398,668c-4-2.1-8-4.4-11.8-7c-11.9-8.1-23.1-17.1-33.8-26.7c-8.3-7.4-16.3-15.1-24-23.1
			c-5.3-5.5-10.4-11.1-15.3-17c-4.6-5.5-9.1-11.1-13.3-16.8c-3.4-4.6-6.7-9.3-9.8-14.1c-3.7-5.7-7.2-11.5-10.4-17.5
			c-2.3-4.3-4.5-8.7-6.5-13.1c-1.9-4.3-3.7-8.7-5.3-13.2c-1.3-3.4-2.2-6.9-3.3-10.4c-1.2-3.7-2-7.5-2.8-11.3
			c-0.8-4.1-1.5-8.3-1.9-12.5c-0.1-1.4-0.2-2.8-0.3-4.2c-0.1-0.9-0.3-1.7-0.4-2.6v-54.2c0-11.5,9.3-20.8,20.8-20.8h239.4
			c11.5,0,20.8,9.3,20.8,20.8V479.9z"/>
	</g>
	<g>
		<path fill="#93571C" d="M435.1,371.7c-0.7,4.8-2.5,13-6.8,18.3c-6.5,7.7-41.9,11.5-41.9,11.5l-19.4-78.1c0,0-41.3-9-53.8-26.3
			c0,0,26.8,5.2,33.8-6.1c7-11.3,27.5,10.8,38.2,10.8c5.7,0,15.6-9.5,23.6-18.3c-1.8,5.3-3.4,11-3.2,12.7c0.4,3.2,8.6-5.1,9.2-5.7
			c-0.3,1-7.7,22.4-3.1,28.9c2.8,4,8.3-0.1,12.2-4c0.2,0.2,0.3,0.5,0.5,0.7c-4.2,6.7-9,17.7-2.5,25.1c1.7,1.9,2.5,3.6,2.8,5.3
			c-5.2-0.5-4.3,6.7-2.8,11.2c-1.8,4.3-2.9,8.5,2.1,13.4C426.7,373.7,430.7,373.5,435.1,371.7z"/>
	</g>
	<g>
		<path fill="#867063" d="M524.4,489c-0.1,0.3-0.2,0.6-0.2,0.9c0,3.2-0.4,6.3-0.8,9.5c-0.5,3.2-0.9,6.3-1.5,9.5
			c-0.7,3.4-1.5,6.8-2.4,10.1c-0.8,3.2-1.8,6.3-2.8,9.4c-1.3,3.8-2.7,7.5-4.2,11.2c-1.4,3.6-3,7.1-4.6,10.5
			c-1.8,3.8-3.7,7.6-5.7,11.3c-2.5,4.6-5.1,9.1-7.9,13.5c-3,4.8-6.1,9.4-9.3,14c-2.9,4.2-5.9,8.2-9,12.2c-6,7.8-12.4,15.2-18.9,22.4
			c-4.5,4.9-9.1,9.6-13.8,14.2c-3.7,3.6-7.4,7.2-11.2,10.6c-8.1,7.3-16.4,14.3-25.3,20.4c-2.3,1.6-4.7,3.1-7.2,4.2
			c-0.7,0-1.3-0.1-2-0.1l-0.2-0.1c-3.6-2.1-7.2-4.3-10.6-6.8c-10.7-7.9-20.7-16.7-30.3-26.1c-7.5-7.2-14.6-14.7-21.5-22.6
			c-4.7-5.4-9.3-10.9-13.7-16.6c-4.1-5.3-8.1-10.8-11.9-16.5c-3.1-4.5-6-9.1-8.8-13.8c-3.3-5.6-6.5-11.3-9.3-17.1
			c-2-4.2-4-8.5-5.8-12.8c-1.7-4.2-3.3-8.5-4.8-12.9c-1.1-3.3-2-6.8-2.9-10.1c-1-3.6-1.8-7.3-2.5-11c-0.8-4.1-1.3-8.1-1.7-12.3
			c-0.1-1.4-0.1-2.7-0.3-4.1c-0.1-0.8-0.3-1.7-0.4-2.5v-53c0-11.2,8.3-20.3,18.6-20.3h214.5c10.3,0,18.6,9.1,18.6,20.3V489z"/>
	</g>
	<g>
		<path fill="#B8990E" d="M509.1,483.1c-0.1,0.2-0.2,0.4-0.2,0.7c0,2.4-0.3,4.7-0.8,7.1c-0.4,2.4-0.8,4.7-1.4,7.1
			c-0.6,2.5-1.4,5-2.2,7.5c-0.8,2.4-1.6,4.7-2.5,7c-1.2,2.8-2.4,5.6-3.7,8.3c-1.3,2.7-2.7,5.3-4.1,7.8c-1.6,2.8-3.3,5.7-5.1,8.4
			c-2.3,3.4-4.6,6.8-7.1,10.1c-2.7,3.6-5.5,7-8.4,10.5c-2.6,3.1-5.4,6.1-8.1,9.1c-5.5,5.9-11.3,11.5-17.3,16.9
			c-3.7,3.4-7.5,6.6-11.4,9.7c-3.6,2.9-7.2,5.8-10.9,8.6c-7.3,5.5-14.7,10.7-22.8,15.2c-2.1,1.2-4.2,2.3-6.5,3.1c-0.5,0-1,0-1.5,0
			c-0.8-0.3-1.5-0.6-2.3-1c-4.1-1.9-7.8-4.3-11.6-6.7c-8.2-5.3-16-11-23.5-17.1c-6.7-5.4-13.2-11-19.4-16.9
			c-4.2-4-8.4-8.1-12.4-12.4c-3.7-4-7.3-8.1-10.7-12.3c-2.7-3.4-5.4-6.8-7.9-10.3c-3-4.2-5.8-8.4-8.4-12.8c-1.8-3.1-3.6-6.3-5.2-9.6
			c-1.6-3.2-3-6.4-4.3-9.6c-1-2.5-1.8-5-2.6-7.6c-0.9-2.7-1.6-5.5-2.2-8.2c-0.7-3-1.2-6.1-1.5-9.1c-0.1-1-0.1-2-0.2-3.1
			c-0.1-0.6-0.2-1.3-0.4-1.9v-42.8c0-6.5,5.6-11.8,12.5-11.8h201.5c6.9,0,12.5,5.3,12.5,11.8V483.1z"/>
	</g>
	<g>
		<path fill="#531516" d="M402.3,677.6l-5.6-0.3l-1.8-0.9c-4.9-2.6-9-5-12.7-7.5c-11.3-7.7-22.8-16.8-35-27.6
			c-8.5-7.6-16.9-15.6-24.8-23.9c-5.8-6.1-11-11.8-15.8-17.5c-4.7-5.6-9.4-11.5-13.8-17.5c-3.5-4.7-6.9-9.7-10.2-14.6
			c-4.2-6.5-7.8-12.5-10.9-18.4c-2.6-5-4.9-9.5-6.8-13.7c-1.9-4.2-3.7-8.8-5.6-13.8c-1-2.6-1.7-5.2-2.5-7.7c-0.3-1.1-0.6-2.1-1-3.2
			c-1.3-4.2-2.2-8.3-3-12.2c-0.9-4.3-1.5-8.7-2-13.4c-0.1-0.8-0.1-1.7-0.2-2.5c0-0.6-0.1-1.2-0.1-1.8c0-0.4-0.1-0.8-0.2-1.1
			l-0.3-2.2v-55c0-15.8,12.8-28.6,28.6-28.6h242.6c15.8,0,28.6,12.8,28.6,28.6V480l-0.2,0.9c0,3.6-0.5,7-1,10.2l-0.2,1.5
			c-0.5,2.9-0.9,5.8-1.6,8.8c-0.7,3.3-1.6,6.8-2.8,11c-1.2,4-2.2,7.3-3.4,10.3c-1.5,4-3.1,8-4.9,12c-1.7,3.9-3.5,7.7-5.4,11.3
			c-2.4,4.7-4.6,8.6-6.7,12.1c-3.4,5.6-6.3,10.2-9.2,14.4c-3.3,4.8-6.8,9.6-10.7,14.9c-3.4,4.5-7,8.9-10.4,12.9
			c-6,7.2-12.8,14.5-21.8,23.7c-4.9,5-10.1,9.9-16,15.1c-4,3.6-8.4,7.4-12.9,11.2c-10.8,9-20.2,16-29.4,21.8
			c-3.4,2.1-6.4,3.7-9.3,4.9L402.3,677.6z M265.2,476.9L265.2,476.9c0.2,0.9,0.3,1.7,0.4,2.6c0.1,0.8,0.1,1.6,0.2,2.4
			c0,0.6,0.1,1.2,0.1,1.8c0.5,4.3,1,8.2,1.8,12c0.7,3.5,1.5,7.2,2.6,10.7c0.4,1.1,0.7,2.3,1,3.4c0.7,2.4,1.4,4.6,2.2,6.8
			c1.8,4.8,3.5,9,5.2,12.9c1.8,3.9,3.8,8.2,6.3,12.9c2.9,5.5,6.2,11.1,10.2,17.2c3.1,4.7,6.4,9.4,9.7,13.9
			c4.2,5.7,8.7,11.3,13.2,16.7c4.6,5.5,9.6,11,15.2,16.9c7.6,8,15.7,15.7,23.9,23c11.7,10.4,22.7,19.1,33.5,26.5
			c2.7,1.9,5.8,3.7,9.4,5.6c1.5-0.8,3.2-1.7,5-2.9c8.7-5.5,17.5-12,27.8-20.6c4.4-3.6,8.6-7.4,12.5-10.9c5.6-5,10.6-9.7,15.3-14.5
			c8.7-8.9,15.2-15.9,21-22.8c3.3-3.9,6.7-8.1,10-12.4c3.8-5,7.2-9.7,10.3-14.2c2.7-4,5.5-8.3,8.7-13.7c2-3.3,3.9-6.8,6.2-11.3
			c1.7-3.3,3.4-6.9,5-10.5c1.6-3.7,3.2-7.5,4.5-11.2c1-2.7,2-5.6,3-9.3c1.1-3.8,1.9-7,2.6-10c0.6-2.5,1-5.1,1.4-7.9l0.2-1.5
			c0.5-2.8,0.9-5.7,0.8-8.6c0-0.8,0.1-1.4,0.2-1.9v-55.5c0-7.5-6.1-13.5-13.5-13.5H278.7c-7.5,0-13.5,6.1-13.5,13.5V476.9z"/>
	</g>
	<g>
		<path fill="#F6CC4D" d="M513.4,502.8c-0.1,0.2-0.2,0.4-0.2,0.7c0,2.4-0.3,4.7-0.8,7.1c-0.4,2.4-0.8,4.7-1.4,7.1
			c-0.6,2.5-1.4,5-2.2,7.5c-0.8,2.4-1.6,4.7-2.5,7c-1.2,2.8-2.4,5.6-3.7,8.3c-1.3,2.7-2.7,5.3-4.1,7.8c-1.6,2.8-3.3,5.7-5.1,8.4
			c-2.3,3.4-4.6,6.8-7.1,10.1c-2.7,3.6-5.5,7-8.4,10.5c-2.6,3.1-5.4,6.1-8.1,9.1c-5.5,5.9-11.3,11.5-17.3,16.9
			c-3.7,3.4-7.5,6.6-11.4,9.7c-3.6,2.9-7.2,5.8-10.9,8.6c-7.3,5.5-14.7,10.7-22.8,15.2c-2.1,1.2-4.2,2.3-6.5,3.1c-0.5,0-1,0-1.5,0
			c-0.8-0.3-1.5-0.6-2.3-1c-4.1-1.9-7.8-4.3-11.6-6.7c-8.2-5.3-16-11-23.5-17.1c-6.7-5.4-13.2-11-19.4-16.9
			c-4.2-4-8.4-8.1-12.4-12.4c-3.7-4-7.3-8.1-10.7-12.3c-2.7-3.4-5.4-6.8-7.9-10.3c-3-4.2-5.8-8.4-8.4-12.8c-1.8-3.1-3.6-6.3-5.2-9.6
			c-1.6-3.2-3-6.4-4.3-9.6c-1-2.5-1.8-5-2.6-7.6c-0.9-2.7-1.6-5.5-2.2-8.2c-0.7-3-1.2-6.1-1.5-9.1c-0.1-1-0.1-2-0.2-3.1
			c-0.1-0.6-0.2-1.3-0.4-1.9v-42.8c0-6.5,5.6-11.8,12.5-11.8h201.5c6.9,0,12.5,5.3,12.5,11.8V502.8z"/>
	</g>
	<g>
		<polygon fill="#EE4036" points="351.1,594.7 381.1,630 416.4,630.8 451.2,594.7 		"/>
		<path fill="#293D44" d="M417.1,632.5l-36.8-0.9L347.4,593h107.7L417.1,632.5z M381.9,628.3l33.9,0.8l31.5-32.7h-92.5L381.9,628.3z
			"/>
	</g>
	<g>
		<ellipse fill="#F5E4A7" cx="400.7" cy="543.6" rx="52.2" ry="49.4"/>
	</g>
	<g>
		<polygon fill="#379CC0" points="311,550.7 349.6,590.3 452.7,590.3 488.9,550.7 		"/>
	</g>
	<g>
		<path fill="#531516" d="M402.4,644h-4.8l-2.2-1c-0.6-0.3-1.2-0.6-1.9-0.9c-4.5-2.3-8.7-5.1-12.4-7.8c-7.8-5.5-15.7-11.8-24.1-19.1
			c-6.8-6-13.5-12.3-19.8-18.8c-4.7-4.8-8.8-9.3-12.7-13.8c-3.8-4.4-7.5-9.1-11.1-13.8c-2.8-3.8-5.6-7.7-8.2-11.6
			c-3.4-5.1-6.3-9.9-8.8-14.6c-2.1-4-3.9-7.5-5.4-10.9s-3-7-4.5-11c-0.8-2-1.4-4.1-2-6.2l-0.8-2.5c-1.1-3.4-1.8-6.7-2.4-9.8
			c-0.7-3.4-1.2-6.9-1.6-10.7c-0.1-0.7-0.1-1.4-0.2-2.1c0-0.4,0-0.9-0.1-1.3c0-0.2-0.1-0.5-0.1-0.7l-0.3-2.1v-46.8
			c0-11.4,9.1-20.6,20.2-20.6h201.5c11.2,0,20.2,9.2,20.2,20.6l-0.2,49.6c-0.1,2.9-0.4,5.6-0.8,8.1l-0.2,1.2
			c-0.4,2.3-0.8,4.6-1.3,6.9c-0.6,2.7-1.3,5.4-2.3,8.7c-0.9,3.2-1.8,5.8-2.7,8.2c-1.2,3.2-2.5,6.4-3.9,9.5c-1.4,3.1-2.9,6.2-4.4,9
			c-2,3.7-3.7,6.8-5.4,9.6c-2.7,4.4-5,8.1-7.3,11.4c-2.6,3.8-5.4,7.6-8.6,11.7c-2.8,3.6-5.7,7-8.3,10.2c-4.9,5.8-10.3,11.6-17.7,19
			c-3.7,3.7-7.6,7.4-11.7,11c-3.5,3.1-7.2,6.3-11.1,9.5c-8.7,7.1-16.2,12.6-23.6,17.2c-2.8,1.7-5.2,3-7.6,4L402.4,644z M294.4,484.6
			c0.1,0.7,0.2,1.3,0.3,2c0.1,0.6,0.1,1.3,0.1,1.9c0,0.5,0,0.9,0.1,1.4c0.4,3.3,0.8,6.3,1.4,9.2c0.6,2.7,1.2,5.5,2,8.2
			c0.3,0.9,0.5,1.8,0.8,2.7c0.5,1.8,1.1,3.5,1.7,5.2c1.4,3.7,2.7,7,4.1,10c1.4,3.1,3,6.4,5,10c2.3,4.2,4.9,8.6,8,13.3
			c2.4,3.7,5,7.3,7.7,10.9c3.3,4.5,6.8,8.8,10.4,13c3.7,4.3,7.6,8.6,12,13.1c6,6.2,12.4,12.3,18.9,18c8,7,15.5,12.9,22.8,18.1
			c3.2,2.2,6.6,4.6,10.2,6.5c1-0.5,2-1.1,3.1-1.8c6.8-4.2,13.8-9.3,21.9-16c3.7-3.1,7.3-6.2,10.7-9.2c3.8-3.4,7.5-6.8,11-10.3
			c7.1-7,12.3-12.6,16.9-18c2.6-3,5.3-6.3,7.9-9.7c3-3.9,5.7-7.5,8.1-11.1c2.1-3.1,4.3-6.5,6.9-10.7c1.5-2.5,3.1-5.3,4.9-8.7
			c1.3-2.6,2.7-5.3,3.9-8.1c1.3-2.9,2.5-5.8,3.6-8.7c0.8-2.1,1.5-4.3,2.4-7.1c0.9-3,1.5-5.4,2-7.7c0.4-2,0.8-4,1.1-6.1l0.2-1.2
			c0.3-2.1,0.7-4.3,0.6-6.4c0-0.7,0.1-1.3,0.2-1.7v-47c0-2.9-2.2-5.2-4.9-5.2H299.2c-2.7,0-4.9,2.4-4.9,5.2V484.6z"/>
	</g>
	<g>
		<path fill="#531516" d="M360.1,344.7c-0.6,0-1.3-0.1-1.9-0.3c-59.3-19.2-58.1-68.1-58.1-68.6c0.1-3.4,3-6.1,6.3-5.9
			c3.4,0.1,6,2.9,5.9,6.3c0,1.7-0.5,40.4,49.7,56.6c3.2,1,5,4.5,3.9,7.7C365,343.1,362.6,344.7,360.1,344.7z"/>
	</g>
	<g>
		<path fill="#531516" d="M481.4,203.1c0.6-0.2,1.1-0.2,1.6-0.1c-3.9-11.6-9.7-21.3-17.4-28.9c-17-16.8-43-23.9-77.3-21
			c-69.4,5.9-93.4,72.7-94.4,75.5l13.4,4.3c0.2-0.6,21.9-61.2,82.2-66.3c29.9-2.5,52.1,3.2,66,16.9c6.3,6.3,11.1,14.4,14.4,24.4
			C473.7,206.3,477.5,204.6,481.4,203.1z"/>
	</g>
	<g>
		<path fill="#531516" d="M488.6,336.9c-0.2,0-0.4,0.1-0.7,0c-1.9-0.2-2.1-0.7-4-0.8c-1.1,0-2.6-0.5-3.2-1.1
			c-4.8,31.3-14.2,50.7-18,57.9h-94.7l-5.6-17.6l-12.9-43.8l-14.2,4.4l13,43.9l9,28.2H471l2.2-3.4c0.8-1.2,13.8-21.7,20.8-64
			C491.9,343.3,486.9,340.5,488.6,336.9z"/>
	</g>
	<g>
		<path fill="#FCF3DC" d="M363.8,148.1c0,0-64.5-1.1-69.6,105.2c0,0-0.7,8.5,7,20.7c4.9,7.8,13.2,19,27.3,28.5
			c2.6,1.8,7.2-0.4,9.7-2.4c7.6-6.1,11.3-12.6,17.8-11.3c9.5,2,29.1,16,34.2,14.9c4.8-1,60.5-68,47.3-109.6
			C422.7,148.1,389.9,147.6,363.8,148.1z"/>
	</g>
	<g>
		<path fill="#D3C7B6" d="M363.6,152.9c0,0,84,34.6,28.5,121.9c-3.3,5.2-5.3-14.9-9.7-9.1c0,0-18.3,19.6-32.7,17.7l44.2,15.5
			c0,0,43.8-45.7,45-78.9S416.3,140.4,363.6,152.9z"/>
	</g>
	<g>
		<path fill="#531516" d="M388.4,307.3L388.4,307.3c-4.5,0-9.7-2.7-18.5-7.5c-5.2-2.8-11.6-6.3-14.9-7c-1,0.1-3.5,2.5-5.1,4.1
			c-1.6,1.6-3.5,3.4-5.8,5.2c-1.3,1.1-6,4.5-11.5,4.5c-2.3,0-4.5-0.7-6.4-1.9c-11.2-7.6-20.6-17.5-28-29.3
			c-8.3-13.3-7.8-23.1-7.7-24.1c5-105.4,70.5-106.7,73.3-106.7c2.2,0,4.6-0.1,7-0.1c26.9,0,56.2,5.8,70,49
			c7.5,23.4-4.9,52.2-16.6,72.3c-7.6,13.1-26,39.6-33.8,41.2C389.9,307.3,389.2,307.3,388.4,307.3z M354.9,278.3
			c1,0,2.1,0.1,3.1,0.3c5.3,1.1,12.2,4.8,18.8,8.4c3.2,1.7,7.7,4.2,10.4,5.2c10.9-10.4,49.8-62.9,39.8-94.2
			c-12.7-39.8-40.3-39.2-62.9-38.8c-2.5,0-54.6,1.1-59,93c0,0.3-0.2,6.4,5.5,15.5c6.1,9.8,13.5,17.7,22.6,24.1
			c0.5-0.2,1.2-0.6,1.7-1c1.8-1.4,3.3-2.9,4.8-4.4C344,282.5,348.3,278.3,354.9,278.3z"/>
	</g>
	<g>
		<path fill="#531516" d="M445.7,352.3l0,6c0,3.7-2.6,7-6.3,7.4c-4.2,0.4-7.8-2.8-7.8-7l0-6.4c0-3.1-2.5-5.6-5.6-5.6h0
			c-3.1,0-5.6,2.5-5.6,5.6l0,5.8c0,9.3,6.7,17.5,15.9,18.7c11.1,1.4,20.6-7.3,20.6-18.1l0-6.4c0-3.1-2.5-5.6-5.6-5.6l0,0
			C448.2,346.7,445.7,349.2,445.7,352.3z"/>
	</g>
	<g>
		<path fill="#531516" d="M475.2,357.5l-0.3,2c-0.4,4.4-3.3,7.4-7.5,7.9c-4.8,0.5-8.8-3.1-8.8-7.7l0-7.1c0-3.4-2.9-6.2-6.4-6.2
			s-6.4,2.8-6.3,6.2l0,6.4c0,10.2,7.6,19.3,18,20.6c4.1,0.5,8-0.2,11.5-1.8c0-0.2,0-0.3,0-0.5c1.3-6.2,2.7-12.7,1.8-18.8
			C476.9,358.5,476.1,355.7,475.2,357.5z"/>
	</g>
	<g>
		<path fill="#531516" d="M433.5,332.6l0,6c0,3.7-2.6,7-6.3,7.4c-4.2,0.4-7.8-2.8-7.8-7l0-6.4c0-3.1-2.5-5.6-5.6-5.6l0,0
			c-3.1,0-5.6,2.5-5.6,5.6l0,5.8c0,9.3,6.7,17.5,15.9,18.7c11.1,1.4,20.6-7.3,20.6-18.1l0-6.4c0-3.1-2.5-5.6-5.6-5.6h0
			C436,327,433.5,329.5,433.5,332.6z"/>
	</g>
	<g>
		<path fill="#531516" d="M420.6,352.4l0,6c0,3.7-2.6,7-6.3,7.4c-4.2,0.4-7.8-2.8-7.8-7l0-6.4c0-3.1-2.5-5.6-5.6-5.6h0
			c-3.1,0-5.6,2.5-5.6,5.6l0,5.8c0,9.3,6.7,17.5,15.9,18.7c11.1,1.4,20.6-7.3,20.6-18.1l0-6.4c0-3.1-2.5-5.6-5.6-5.6h0
			C423.1,346.7,420.6,349.3,420.6,352.4z"/>
	</g>
	<g>
		<path fill="#531516" d="M395.3,361.3l0,6c0,3.7-2.6,7-6.3,7.4c-4.2,0.4-7.8-2.8-7.8-7l0-6.4c0-3.1-2.5-5.6-5.6-5.6h0
			c-3.1,0-5.6,2.5-5.6,5.6l0,5.8c0,9.3,6.7,17.5,15.9,18.7c11.1,1.4,20.6-7.3,20.6-18.1l0-6.4c0-3.1-2.5-5.6-5.6-5.6l0,0
			C397.8,355.7,395.3,358.2,395.3,361.3z"/>
	</g>
	<g>
		<path fill="#531516" d="M381.1,361.4c0-3.1-2.5-5.6-5.6-5.6c-3.1,0-5.6,2.5-5.6,5.6l0,6c0,3.7-2.6,7-6.3,7.4
			c-0.2,0-1.2,0.2-1.4,0.2c1.2,3.6,2.3,7.3,3.4,10.9c8.4-1.7,15.5-9.3,15.4-18.1L381.1,361.4z"/>
	</g>
	<g>
		<path fill="#531516" d="M433.3,371.9l0,6c0,3.7-2.6,7-6.3,7.4c-4.2,0.4-7.8-2.8-7.8-7l0-6.4c0-3.1-2.5-5.6-5.6-5.6l0,0
			c-3.1,0-5.6,2.5-5.6,5.6l0,5.8c0,9.3,6.7,17.5,15.9,18.7c11.1,1.4,20.6-7.3,20.6-18.1l0-6.4c0-3.1-2.5-5.6-5.6-5.6l0,0
			C435.8,366.3,433.3,368.8,433.3,371.9z"/>
	</g>
	<g>
		<path fill="#531516" d="M413.6,371.3c-3.2,0-5.8,2.6-5.8,5.8l0,6.1c0,3.8-2.7,7.2-6.4,7.6c-4.3,0.5-8-2.9-8-7.1l0-0.8
			c-3.4,1.7-7.4,1.9-11.3,2.2c0.9,8.6,7.4,16,16.1,17.1c11.4,1.4,21.2-7.5,21.2-18.6l0-6.6C419.3,373.8,416.7,371.3,413.6,371.3z"/>
	</g>
	<g>
		<path fill="#531516" d="M280.3,244.2l-15-1.9c0.8-6.2-5.4-16.2-9.5-21l11.5-9.9C268.8,213.2,282.2,229.3,280.3,244.2z"/>
	</g>
	<g>
		<path fill="#531516" d="M377.1,333.5c-0.5,0-1.1-0.1-1.6-0.3c-11.6-3.9-22-18.8-23.1-20.5c-1.6-2.3-1-5.4,1.3-7
			c2.3-1.6,5.4-1,7,1.3c2.6,3.8,10.9,14.2,18,16.6c2.6,0.9,4.1,3.7,3.2,6.4C381.2,332.2,379.3,333.5,377.1,333.5z"/>
	</g>
	<g>
		<path fill="#FFFFFF" d="M450.5,292.4c0,0,14.6-10.9,17.6-21.4"/>
		<path fill="#531516" d="M450.5,297.5c-1.5,0-3.1-0.7-4-2c-1.7-2.2-1.2-5.4,1-7.1c3.7-2.8,13.7-11.5,15.8-18.7
			c0.8-2.7,3.6-4.2,6.2-3.5c2.7,0.8,4.2,3.6,3.5,6.2c-3.4,11.8-17.8,22.8-19.4,24C452.6,297.2,451.5,297.5,450.5,297.5z"/>
	</g>
	<g>
		<path fill="#FFFFFF" d="M471.5,240.1c0,0,18-2.5,25.7-10.2"/>
		<path fill="#531516" d="M471.5,245.2c-2.5,0-4.6-1.8-5-4.4c-0.4-2.8,1.6-5.3,4.3-5.7c4.6-0.6,17.5-3.4,22.8-8.7c2-2,5.2-2,7.1,0
			c2,2,2,5.2,0,7.1c-8.6,8.7-26.6,11.3-28.6,11.6C471.9,245.2,471.7,245.2,471.5,245.2z"/>
	</g>
	<g>
		<path fill="#DDA233" d="M473.3,210.4c0,0,17.4,4.9,20.4,6.2s5.4-10.7,7.9-10.5c2.5,0.2,4.6,1.9,13.2-3.1c8.5-5,5.4-13.8,5.4-13.8
			s14.9-4,16.7-7.2c1.8-3.2,0-24.8,0-24.8s7.8-16,21.7-6.1c4.1,2.9-12.4-26.5-14.2-41c-1.8-14.5,7.5,15.2,26.2,2.3
			c5.2-3.6-6.1-25.6-4.3-28.2c2.2-3.1,15.6,18.9,30.7,5c3.9-3.6,1.9-15.7,1.9-15.7s40.1,21,47.5,27.8c7.5,6.8-13.9-21.4-13.9-21.4
			s-34.3-26.2-61.9-22.3s-39,25.5-38.3,44.2s6.7,51.1-8.6,68S487,208,473.3,210.4z"/>
	</g>
	<g>
		<path fill="#FFFFFF" d="M528.2,454.2c0,0,5-17.5,1-27.6"/>
		<path fill="#531516" d="M528.2,459.3c-0.5,0-0.9-0.1-1.4-0.2c-2.7-0.8-4.2-3.5-3.5-6.2c1.2-4.4,3.9-17.5,1.1-24.4
			c-1-2.6,0.3-5.5,2.8-6.5c2.6-1,5.5,0.3,6.5,2.8c4.5,11.4-0.3,28.9-0.8,30.9C532.5,457.8,530.4,459.3,528.2,459.3z"/>
	</g>
	<g>
		<path fill="#ECB799" d="M377.5,401.9c0,0-31.3-20.5-46.3,5c-11.2,19.1,15.3,38.4,15.3,38.4S348.4,407.9,377.5,401.9z"/>
		<path fill="#531516" d="M353,459l-10.8-7.9c-11.8-8.6-28.7-28.4-17.2-48c6.3-10.7,16-16.4,28-16.4c14.7,0,28,8.6,28.5,9l14.6,9.6
			L379,409c-23.4,4.9-25.3,36.4-25.3,36.7L353,459z M352.9,401.3c-6.9,0-11.8,2.9-15.5,9.2c-4.1,6.9-0.3,14.5,4.3,20.1
			c2.6-9.2,7.7-20.8,17.9-28.5C357.5,401.6,355.2,401.3,352.9,401.3z"/>
	</g>
	<g>
		<path fill="#ECB799" d="M450.9,401.9c0,0-31.3-20.5-46.3,5c-11.2,19.1,15.7,38.4,15.7,38.4S420.2,405.7,450.9,401.9z"/>
		<path fill="#531516" d="M427.5,459.4l-11.5-8.3c-12-8.6-29.2-28.4-17.7-48c6.3-10.7,16-16.4,28-16.4c14.7,0,28,8.6,28.5,9
			l16.5,10.8l-19.6,2.4c-24,3-24.3,35.9-24.3,36.2V459.4z M426.3,401.3c-6.9,0-11.8,2.9-15.5,9.2c-3.9,6.6-0.4,13.9,4.1,19.5
			c2.5-10.1,7.6-21.1,16.9-28.2C430,401.5,428.2,401.3,426.3,401.3z"/>
	</g>
	<g>
		<path fill="#531516" d="M482.2,365.4c-0.5,0-0.9,0-1.4-0.1c-4.1-0.8-6.8-4.7-6.1-8.8c1.4-7.5,3.1-15.1,4.9-23.3
			c6.5-29.5,13.9-62.9,8.8-97.8c-0.6-4.1,2.3-8,6.4-8.6c4.2-0.6,8,2.3,8.6,6.4c5.5,37.7-2.2,72.5-9,103.3c-1.8,8-3.4,15.5-4.8,22.8
			C489,362.9,485.8,365.4,482.2,365.4z"/>
	</g>
	<g>
		<path fill="none" stroke="#531516" stroke-width="5.3242" stroke-linecap="round" stroke-miterlimit="10" d="M488.8,293.2"/>
	</g>
	<g>
		<path fill="none" stroke="#531516" stroke-width="5.3242" stroke-linecap="round" stroke-miterlimit="10" d="M496,254.2"/>
	</g>
	<g>
		<path fill="#531516" d="M352.9,425.8c-2,0-4-1-5.2-2.9c-3.4-5.4-15.2-4.2-18.1-3.6c-3.3,0.7-6.5-1.4-7.2-4.7
			c-0.7-3.3,1.4-6.5,4.7-7.2c2.3-0.5,22.6-4.4,31,9c1.8,2.9,0.9,6.6-1.9,8.4C355.2,425.5,354.1,425.8,352.9,425.8z"/>
	</g>
	<g>
		<path fill="#531516" d="M426.5,424.2c-1.9,0-3.8-0.9-5-2.6c-1.4-2-9.8-1.5-16.7,1c-3.2,1.1-6.7-0.6-7.8-3.7
			c-1.1-3.2,0.6-6.7,3.7-7.8c3.8-1.3,23.1-7.4,30.8,3.6c1.9,2.8,1.2,6.6-1.5,8.5C428.9,423.8,427.7,424.2,426.5,424.2z"/>
	</g>
	<g>
		<path d="M506.8,564.4c4.7-7.4,9.1-14.9,13.1-22.7C515.1,549.8,510.6,557.4,506.8,564.4z"/>
	</g>
	<g>
		<g>
			<path fill="#531516" d="M343.4,494.7l23.9,15.4c1.1,0.7,2,1.7,2.7,3.1c0.7,1.4,1.1,2.9,1.1,4.6c0,1.6-0.2,3.1-0.5,4.5
				c-0.4,1.5-0.9,2.7-1.5,3.6c-0.7,0.9-1.4,1.4-2.3,1.4c-1.1,0-2.1-0.3-3.2-0.9l-33.9-23.1c-2.7-1.8-4.1-4.5-4.1-8.3
				c0-2,0.3-3.7,0.9-5.2c0.6-1.5,1.4-2.6,2.5-3.3l34.5-23.6c1.1-0.6,2.2-0.9,3.2-0.9c1.3,0,2.4,1,3.2,2.9c0.8,1.9,1.2,4.1,1.2,6.6
				c0,1.6-0.4,3.2-1.1,4.6c-0.8,1.4-1.7,2.5-2.7,3.1L343.4,494.7z"/>
		</g>
		<g>
			<path fill="#531516" d="M453.4,496.8l-24.1-15.4c-1.1-0.7-2-1.7-2.7-3.1c-0.8-1.4-1.1-2.9-1.1-4.6c0-1.6,0.2-3.1,0.5-4.5
				c0.4-1.5,0.9-2.7,1.5-3.6c0.7-0.9,1.4-1.4,2.3-1.4c1.1,0,2.2,0.3,3.2,0.9l34.2,23.1c2.8,1.8,4.1,4.5,4.1,8.3c0,2-0.3,3.7-0.9,5.2
				c-0.6,1.5-1.5,2.6-2.5,3.3L433,528.6c-1.1,0.6-2.2,0.9-3.2,0.9c-1.3,0-2.4-1-3.2-2.9c-0.8-1.9-1.2-4.1-1.2-6.6
				c0-1.6,0.4-3.2,1.2-4.6c0.8-1.4,1.7-2.5,2.7-3.1L453.4,496.8z"/>
		</g>
		<g>
			<path fill="#531516" d="M415.6,462.3l-22.4,68.4c-0.8,3-2.7,4.9-5.7,5.6c-2.1,0.5-4.2,0.7-6.3,0.6c-2.1-0.2-3.4-0.7-4-1.6
				c-0.3-0.7-0.3-2,0.2-3.9l22.4-68.5c0.5-2.2,2.3-3.7,5.3-4.5c2.2-0.5,4.2-0.7,6.3-0.6c2,0.2,3.3,0.7,3.8,1.7
				C415.8,460.6,415.9,461.5,415.6,462.3z"/>
		</g>
	</g>
	<g>
		<path fill="#899D3B" d="M286.2,664.6c6.2,2.9,13.3,4.2,19.4-2.1c-3.3-7.9-8.8-15-15.6-20c-5.4-4-12.8-5.9-18.8-1.9
			C272.8,650.1,278.3,660.9,286.2,664.6z"/>
		<path fill="#531516" d="M295.5,673.1C295.5,673.1,295.5,673.1,295.5,673.1c-3.7,0-7.6-1-11.8-2.9c-10.2-4.7-16.7-17.8-18.5-28.6
			l-0.7-3.9l3.3-2.2c3.2-2.1,6.8-3.2,10.8-3.2c5.1,0,10.4,1.9,15.1,5.3c7.7,5.7,13.9,13.7,17.6,22.6l1.5,3.7l-2.8,2.9
			C305.9,671,301,673.1,295.5,673.1z M278.4,644.5c2.2,6.9,6.2,12.7,10.4,14.6c2.6,1.2,4.8,1.8,6.7,1.8h0c0.9,0,1.6-0.1,2.4-0.4
			c-2.9-5.1-6.8-9.7-11.5-13.1C283.8,645.5,280.9,644.5,278.4,644.5z"/>
	</g>
	<g>
		<path fill="#899D3B" d="M317.8,647.5c-1.2,6.8-5.5,12.8-12.2,15c-5.3-6.6-7.8-15.5-5.8-23.9c1.6-6.6,6.9-11.6,13.7-12.2
			C317.4,632.7,319.1,640.2,317.8,647.5z"/>
		<path fill="#531516" d="M303.5,669.6l-2.7-3.3c-6.7-8.4-9.3-19.3-6.9-29.1c2.3-9.4,9.8-16,19.1-16.8l3.8-0.3l2,3.3
			c4.7,7.8,6.5,16.8,5,25.2c-1.7,9.5-7.7,16.9-16.2,19.7L303.5,669.6z M310.4,633.7c-2.2,1.3-3.9,3.5-4.6,6.4
			c-1.1,4.7-0.4,9.8,1.8,14.3c2.1-1.9,3.6-4.7,4.2-8C312.5,642.3,312,637.9,310.4,633.7z"/>
	</g>
	<g>
		<path fill="#899D3B" d="M307.2,697.1c7,1.2,14.4,0.3,19.2-7.4c-4.9-7-12.2-13.3-19.8-15.4c-6.7-1.8-13.8-2.8-19.6,3.4
			C290.6,686.6,298.6,695.7,307.2,697.1z"/>
		<path fill="#531516" d="M312,703.7L312,703.7c-1.8,0-3.8-0.2-5.8-0.5c-11.4-1.9-20.7-13-24.9-23.1l-1.5-3.6l2.7-2.9
			c4.2-4.5,9.4-6.7,15.5-6.7c3.8,0,7.4,0.9,10.1,1.6c8.3,2.3,17,8.9,23.2,17.8l2.3,3.3l-2.1,3.4C327.2,699.9,320.5,703.7,312,703.7z
			 M294.7,679.6c3.6,6.1,8.9,10.8,13.5,11.5c4.6,0.8,7.9,0.3,10.3-1.5c-4.1-4.7-9.1-8.2-13.6-9.4
			C301.8,679.4,297.5,678.5,294.7,679.6z"/>
	</g>
	<g>
		<path fill="#899D3B" d="M335.6,671.5c0.1,7.3-3.1,14.2-9.3,18.2c-6.7-5.2-11-13.4-10.6-22c0.3-7.1,4.8-13.3,11.5-15.7
			C332.4,657.2,335.5,664.1,335.6,671.5z"/>
		<path fill="#531516" d="M326,697.2l-3.4-2.6c-8.6-6.6-13.5-16.8-13-27.1c0.4-9.6,6.5-17.9,15.5-21.2l3.7-1.3l2.8,2.8
			c6.5,6.5,10.1,14.9,10.2,23.7c0.1,9.7-4.4,18.5-12.1,23.4L326,697.2z M325.7,659.8c-2.4,2-3.8,4.9-4,8.2
			c-0.2,4.7,1.5,9.5,4.7,13.4c2-2.7,3.1-6.1,3.1-9.8C329.5,667.4,328.1,663.3,325.7,659.8z"/>
	</g>
	<g>
		<path fill="#899D3B" d="M334.9,724c8,0.1,15.1-4.9,17.7-12.5c-6.3-5.8-15.1-10.2-23.1-10.3c-7.3,0-14.6,1.1-19,8.7
			C316.1,717.9,325.1,723.9,334.9,724z"/>
		<path fill="#531516" d="M335.2,730.1L335.2,730.1l-0.4,0c-11.1-0.2-22.1-6.4-29.3-16.7l-2.2-3.2l2-3.4c6-10.4,16-11.7,24-11.7h0.3
			c8.9,0,19.1,4.5,27.2,11.9l3,2.7l-1.3,3.8C355,723.5,345.7,730.1,335.2,730.1z M318.4,710c4.7,4.9,10.7,7.9,16.6,8h0.2
			c3.9,0,7.4-1.8,9.7-4.8c-5-3.6-10.8-5.8-15.4-5.8c0,0,0,0,0,0C324.2,707.4,320.8,708.1,318.4,710z"/>
	</g>
	<g>
		<path fill="#899D3B" d="M358.3,690.7c1.6,7.5-0.3,15.3-5.6,20.8c-7.9-3.5-13.9-10.8-15.1-19.3c-1.1-7.4,2.2-14.6,8.4-18.8
			C352.3,677.3,356.8,683.5,358.3,690.7z"/>
		<path fill="#531516" d="M354.1,718.9l-3.9-1.7c-10-4.4-17.2-13.6-18.7-24c-1.4-9.7,2.8-19.2,11-24.7l3.2-2.2l3.3,2
			c7.8,4.7,13.3,12.5,15.1,21.2c2,9.7-0.7,19.5-7.2,26.3L354.1,718.9z M346.3,681.3c-2.3,2.8-3.3,6.4-2.7,10
			c0.7,4.7,3.4,9.1,7.4,12.1c1.7-3.4,2.2-7.5,1.3-11.5C351.4,687.9,349.3,684.2,346.3,681.3z"/>
	</g>
	<g>
		<path fill="#899D3B" d="M368.5,744.1c8.2-1.9,14.2-8.8,15.2-17.2c-7.6-4.3-16.7-6-25.4-4.6c-7.7,1.3-15,5.9-17.3,13.7
			C348.4,742.7,358.7,746.4,368.5,744.1z"/>
		<path fill="#531516" d="M362.5,750.9c-9,0-18.3-3.8-25.6-10.3L334,738l1.1-3.7c2.8-9.2,11.3-16.1,22.1-17.9
			c9.9-1.7,20.5,0.2,29.4,5.3l3.5,2l-0.5,4c-1.3,10.9-9.3,19.9-19.9,22.4C367.5,750.6,365,750.9,362.5,750.9z M348.6,734.3
			c4.3,2.8,9.2,4.4,13.8,4.4l0,0c1.6,0,3.1-0.2,4.6-0.5c4.2-1,7.7-4,9.4-7.9c-5.5-2.2-11.5-2.8-17.2-1.9
			C355.6,729,351.2,730.9,348.6,734.3z"/>
	</g>
	<g>
		<path fill="#899D3B" d="M384.9,704.4c3.1,7.3,3,15.8-1.2,22.6c-8.6-1.6-16.3-7.5-19.3-15.7c-2.7-7.4-0.7-15.5,4.6-21.2
			C376.1,692.3,381.9,697.5,384.9,704.4z"/>
		<path fill="#531516" d="M386.7,733.7l-4.1-0.7c-11.1-2-20.2-9.5-23.9-19.7c-3.4-9.3-1.1-19.8,5.8-27.4l2.6-2.9l3.7,1.2
			c8.8,2.8,16,9.3,19.6,17.8c4.1,9.4,3.4,20-1.6,28.2L386.7,733.7z M371.1,697.5c-1.9,3.6-2.3,7.8-0.9,11.6
			c1.7,4.6,5.4,8.4,10.2,10.5c1.1-4,0.8-8.6-1-12.8C377.6,702.9,374.7,699.6,371.1,697.5z"/>
	</g>
	<g>
		<path fill="#899D3B" d="M279.1,622.6c2,7.1,7.5,12.4,14.2,14.7c4.2-5.5,5.8-12.6,3.8-19.5c-2-7.1-7.5-12.4-14.2-14.7
			C278.8,608.6,277.1,615.7,279.1,622.6z"/>
		<path fill="#531516" d="M295.5,644.5l-4.2-1.5c-8.8-3.1-15.6-10.1-18.1-18.8c-2.4-8.5-0.7-17.6,4.8-24.8l2.7-3.5l4.2,1.5
			c8.8,3.1,15.6,10.1,18.1,18.8c2.4,8.5,0.7,17.6-4.8,24.8L295.5,644.5z M285.4,611.2c-1.2,3.1-1.3,6.5-0.4,9.7c1,3.4,3,6.3,5.9,8.4
			c1.2-3.1,1.3-6.5,0.4-9.7C290.3,616.1,288.2,613.2,285.4,611.2z"/>
	</g>
	<g>
		<g>
			<path fill="#899D3B" d="M514.7,664.6c-6.2,2.9-13.3,4.2-19.4-2.1c3.3-7.9,8.8-15,15.6-20c5.4-4,12.8-5.9,18.8-1.9
				C528.1,650.1,522.6,660.9,514.7,664.6z"/>
			<path fill="#531516" d="M505.4,673.1c-5.5,0-10.4-2.1-14.5-6.3l-2.8-2.9l1.5-3.7c3.7-8.9,9.9-16.9,17.6-22.6
				c4.6-3.4,10-5.3,15.1-5.3c3.9,0,7.6,1.1,10.8,3.2l3.3,2.2l-0.7,3.9c-1.8,10.8-8.2,23.8-18.5,28.6
				C513,672.1,509.1,673.1,505.4,673.1z M503,660.5c2.4,0.8,5.3,0.3,9.1-1.4c4.2-2,8.2-7.7,10.4-14.6c-2.4,0-5.4,1-8,2.9
				C509.9,650.8,505.9,655.4,503,660.5z"/>
		</g>
		<g>
			<path fill="#899D3B" d="M483.1,647.5c1.2,6.8,5.5,12.8,12.2,15c5.3-6.6,7.8-15.5,5.8-23.9c-1.6-6.6-6.9-11.6-13.7-12.2
				C483.5,632.7,481.8,640.2,483.1,647.5z"/>
			<path fill="#531516" d="M497.4,669.6l-4-1.4c-8.5-2.9-14.6-10.3-16.2-19.7c-1.5-8.4,0.3-17.4,5-25.2l2-3.3l3.8,0.3
				c9.4,0.8,16.9,7.4,19.1,16.8c2.4,9.9-0.2,20.7-6.9,29.1L497.4,669.6z M490.5,633.7c-1.6,4.2-2.2,8.6-1.4,12.7
				c0.6,3.3,2.1,6,4.2,8c2.3-4.6,3-9.7,1.8-14.3C494.5,637.2,492.8,635,490.5,633.7z"/>
		</g>
		<g>
			<path fill="#899D3B" d="M493.8,697.1c-7,1.2-14.4,0.3-19.2-7.4c4.9-7,12.2-13.3,19.8-15.4c6.7-1.8,13.8-2.8,19.6,3.4
				C510.3,686.6,502.3,695.7,493.8,697.1z"/>
			<path fill="#531516" d="M488.9,703.7c-8.5,0-15.2-3.7-19.5-10.8l-2.1-3.4l2.3-3.3c6.2-8.9,14.9-15.5,23.2-17.8
				c2.7-0.7,6.3-1.6,10.1-1.6c6.2,0,11.4,2.3,15.5,6.7l2.7,2.9l-1.5,3.6c-4.2,10.1-13.5,21.2-24.9,23.1
				C492.7,703.5,490.8,703.7,488.9,703.7z M482.4,689.6c2.4,1.8,5.7,2.3,10.3,1.5c4.6-0.8,9.9-5.4,13.5-11.5
				c-2.8-1.1-7.2-0.2-10.2,0.6C491.5,681.4,486.6,684.9,482.4,689.6z"/>
		</g>
		<g>
			<path fill="#899D3B" d="M465.3,671.5c-0.1,7.3,3.1,14.2,9.3,18.2c6.7-5.2,11-13.4,10.6-22c-0.3-7.1-4.8-13.3-11.5-15.7
				C468.6,657.2,465.4,664.1,465.3,671.5z"/>
			<path fill="#531516" d="M474.9,697.2l-3.6-2.3c-7.7-5-12.2-13.7-12.1-23.4c0.1-8.8,3.7-17.2,10.2-23.7l2.8-2.8l3.7,1.3
				c9,3.3,15.1,11.6,15.5,21.2c0.5,10.3-4.4,20.5-13,27.1L474.9,697.2z M475.2,659.8c-2.4,3.5-3.7,7.6-3.8,11.8
				c-0.1,3.7,1.1,7.2,3.1,9.8c3.2-3.9,4.9-8.7,4.7-13.4C479,664.7,477.5,661.8,475.2,659.8z"/>
		</g>
		<g>
			<path fill="#899D3B" d="M466,724c-8,0.1-15.1-4.9-17.7-12.5c6.3-5.8,15.1-10.2,23.1-10.3c7.3,0,14.6,1.1,19,8.7
				C484.8,717.9,475.8,723.9,466,724z"/>
			<path fill="#531516" d="M465.7,730.1c-10.5,0-19.8-6.7-23.2-16.6l-1.3-3.8l3-2.7c8.1-7.4,18.3-11.8,27.2-11.9h0.3
				c8,0,17.9,1.3,24,11.7l2,3.4l-2.2,3.2c-7.2,10.2-18.1,16.5-29.3,16.7L465.7,730.1z M456,713.2c2.3,2.9,5.9,4.8,9.7,4.8h0.2
				c5.9-0.1,11.9-3,16.6-8c-2.4-1.8-5.7-2.6-10.9-2.6C466.8,707.4,461,709.6,456,713.2z"/>
		</g>
		<g>
			<path fill="#899D3B" d="M442.7,690.7c-1.6,7.5,0.3,15.3,5.6,20.8c7.9-3.5,13.9-10.8,15.1-19.3c1.1-7.4-2.2-14.6-8.4-18.8
				C448.7,677.3,444.2,683.5,442.7,690.7z"/>
			<path fill="#531516" d="M446.8,718.9l-3-3.1c-6.5-6.8-9.2-16.6-7.2-26.3c1.8-8.8,7.3-16.5,15.1-21.2l3.3-2l3.2,2.2
				c8.2,5.6,12.5,15.1,11,24.8c-1.5,10.3-8.7,19.5-18.7,24L446.8,718.9z M454.6,681.3c-3,2.9-5.2,6.6-6,10.6
				c-0.8,4.1-0.3,8.1,1.3,11.5c4-3,6.7-7.4,7.4-12.1C457.9,687.7,456.9,684.1,454.6,681.3z"/>
		</g>
		<g>
			<path fill="#899D3B" d="M432.5,744.1c-8.2-1.9-14.2-8.8-15.2-17.2c7.6-4.3,16.7-6,25.4-4.6c7.7,1.3,15,5.9,17.3,13.7
				C452.6,742.7,442.2,746.4,432.5,744.1z"/>
			<path fill="#531516" d="M438.4,750.9c-2.5,0-5-0.3-7.4-0.9c-10.6-2.5-18.5-11.5-19.9-22.4l-0.5-4l3.5-2c8.9-5,19.5-6.9,29.4-5.3
				c10.8,1.8,19.3,8.7,22.1,17.9l1.1,3.7l-2.9,2.6C456.8,747.1,447.5,750.9,438.4,750.9z M424.4,730.3c1.7,3.9,5.2,6.9,9.4,7.9
				c5.9,1.4,12.7-0.1,18.4-3.9c-2.6-3.4-6.9-5.3-10.7-5.9C435.9,727.4,429.9,728.1,424.4,730.3z"/>
		</g>
		<g>
			<path fill="#899D3B" d="M416,704.4c-3.1,7.3-3,15.8,1.2,22.6c8.6-1.6,16.3-7.5,19.3-15.7c2.7-7.4,0.7-15.5-4.6-21.2
				C424.8,692.3,419,697.5,416,704.4z"/>
			<path fill="#531516" d="M414.2,733.7l-2.2-3.5c-5.1-8.2-5.7-18.8-1.6-28.2c3.7-8.5,10.8-15,19.6-17.8l3.7-1.2l2.6,2.9
				c7,7.6,9.2,18.1,5.8,27.4c-3.7,10.1-12.8,17.7-23.9,19.7L414.2,733.7z M429.8,697.5c-3.6,2.1-6.5,5.3-8.2,9.2
				c-1.8,4.2-2.1,8.8-1,12.8c4.7-2.1,8.5-5.9,10.2-10.5C432.2,705.4,431.8,701.2,429.8,697.5z"/>
		</g>
		<g>
			<path fill="#899D3B" d="M521.8,622.6c-2,7.1-7.5,12.4-14.2,14.7c-4.2-5.5-5.8-12.6-3.8-19.5c2-7.1,7.5-12.4,14.2-14.7
				C522.2,608.6,523.8,615.7,521.8,622.6z"/>
			<path fill="#531516" d="M505.4,644.5l-2.7-3.5c-5.5-7.3-7.3-16.3-4.8-24.8c2.5-8.7,9.2-15.8,18.1-18.8l4.2-1.5l2.7,3.5
				c5.5,7.3,7.3,16.3,4.8,24.8c-2.5,8.7-9.2,15.8-18.1,18.8L505.4,644.5z M515.6,611.2c-2.9,2.1-4.9,5-5.9,8.4
				c-0.9,3.2-0.8,6.6,0.4,9.7c2.9-2.1,4.9-5,5.9-8.4C516.9,617.7,516.7,614.3,515.6,611.2z"/>
		</g>
	</g>
	<g>
		<path fill="#FFFFFF" d="M700.6,425.6c0,0-5.8,37-8.1,43.7"/>
		<path fill="#531516" d="M692.5,474.4c-0.6,0-1.1-0.1-1.7-0.3c-2.6-0.9-4-3.8-3.1-6.4c1.6-4.6,5.6-28.1,7.9-42.8
			c0.4-2.8,3-4.6,5.8-4.2c2.8,0.4,4.6,3,4.2,5.8c-0.6,3.8-5.9,37.6-8.4,44.6C696.5,473.1,694.6,474.4,692.5,474.4z"/>
	</g>
	<g>
		<path fill="#531516" d="M518.5,347.1c-0.6,0-1.2-0.1-1.8-0.3c-3.2-1-5-4.4-4-7.6c8.6-27.9,21.5-70.1,17.2-108.7
			c-0.4-3.3,2-6.4,5.4-6.7c3.4-0.4,6.4,2,6.7,5.4c4.6,41.1-8.8,84.8-17.7,113.7C523.5,345.4,521.1,347.1,518.5,347.1z"/>
	</g>
	<g>
		<path fill="#531516" d="M618,111.9l4.1,5.4c2.5,3.3,2.4,8.1-0.7,10.9c-3.5,3.2-8.9,2.6-11.7-1.1l-4.3-5.8c-2.1-2.8-6-3.4-8.8-1.3
			v0c-2.8,2.1-3.4,6-1.3,8.8l3.9,5.2c6.2,8.3,17.8,11.3,26.9,6.2c11-6.2,13.7-20.4,6.4-30.2l-4.3-5.8c-2.1-2.8-6-3.4-8.8-1.3v0
			C616.5,105.2,616,109.1,618,111.9z"/>
	</g>
	<g>
		<path fill="#531516" d="M599.9,135.7l4.1,5.4c2.5,3.3,2.3,8.2-0.9,11c-3.6,3.3-9.1,2.8-11.9-0.9l-4.3-5.8c-2.1-2.8-6.1-3.3-9-1.1
			v0c-2.9,2.2-3.5,6.2-1.4,9l3.9,5.2c6.2,8.3,18,11.2,27.4,5.8c11.3-6.5,14.3-20.9,7-30.7l-4.3-5.8c-2.1-2.8-6.1-3.3-9-1.1l0,0
			C598.5,128.9,597.8,132.9,599.9,135.7z"/>
	</g>
	<g>
		<path fill="#531516" d="M580.3,158.5l4.1,5.4c2.5,3.3,2.4,8.1-0.7,10.9c-3.5,3.2-8.9,2.6-11.7-1.1l-4.3-5.8
			c-2.1-2.8-6-3.4-8.8-1.3l0,0c-2.8,2.1-3.4,6-1.3,8.8l3.9,5.2c6.2,8.3,17.8,11.3,26.9,6.2c11-6.2,13.7-20.4,6.4-30.2l-4.3-5.8
			c-2.1-2.8-6-3.4-8.8-1.3v0C578.7,151.8,578.2,155.7,580.3,158.5z"/>
	</g>
	<g>
		<path fill="#531516" d="M563.3,83.6l4.1,5.4c2.5,3.3,2.4,8.1-0.7,10.9c-3.5,3.2-8.9,2.6-11.7-1.1l-4.3-5.8c-2.1-2.8-6-3.4-8.8-1.3
			v0c-2.8,2.1-3.4,6-1.3,8.8l3.9,5.2c6.2,8.3,17.8,11.3,26.9,6.2c11-6.2,13.7-20.4,6.4-30.2l-4.3-5.8c-2.1-2.8-6-3.4-8.8-1.3v0
			C561.8,76.9,561.2,80.8,563.3,83.6z"/>
	</g>
	<g>
		<path fill="#531516" d="M703,487.3c-0.7,0-1.4-0.1-2-0.3c-11.3-3.3-21.5-18.4-27.2-28.5c-2.7,2.2-6.2,3.7-10.2,3.8
			c-10,0.2-20.3-9-27.1-23.5c-3.7,1.2-8.3,1.2-13.4-1.3c-7.3-3.7-13.6-10.8-18.6-21.3c-7.1-0.1-20-3.1-29.5-20.6
			c-10.3,0.4-25.7-3.3-33.3-19.9c-1.9,0.2-4.1,0-6.6-0.8c-7.7-2.4-14.3-9.9-19.9-22.2c-7,0.6-19.5-0.3-31.7-11.2
			c-2.5-2.2-2.7-6.1-0.5-8.6c2.2-2.5,6.1-2.7,8.6-0.5c12.5,11.2,25,7.8,25.5,7.6l5.4-1.6l2.1,5.2c6,15.6,11.8,18.9,14,19.6
			c1.9,0.6,3.2,0,3.2,0l6.8-4.7l2.4,7.9c6,19.7,24.1,16.9,26.1,16.5l4.7-0.9l2,4.3c9.1,20,22.3,17.5,22.8,17.3l5-1l2,4.7
			c5.1,12.4,10.7,17.2,14.5,19.1c3.6,1.8,5.6,0.2,6.4-0.6l6.9-8.2l3.5,10.2c5.6,15.7,14.5,22.2,18.1,22.2c0,0,0,0,0.1,0
			c3.8-0.1,5.3-5.1,5.3-5.2l4.5-15.8l6.9,15c4.3,9.4,13.3,24.3,21.1,29.6c5.3-14.1,13.1-69,15.2-94.6c6.8-83.6-6.6-164-37.7-226.4
			c-25.8-51.7-61.3-86.1-92.8-89.8c-17.2-2-28.8-0.1-35.7,5.7c-9.9,8.4-10.7,26.1-11.6,46.7c-0.5,11.3-1.1,24.1-3.3,36.9
			c-9.4,53.8-67.3,66.7-75.6,66.7c0,0-0.1,0-0.1,0c-3.4,0-6.1-2.8-6-6.2c0-3.3,2.7-6,6-6c1.5-0.2,55.4-8.9,63.7-56.6
			c2.1-12,2.6-23.8,3.1-35.3c1-23.4,1.9-43.6,15.8-55.4c9.6-8.2,24.3-11,45-8.5c35.6,4.1,74.8,41.1,102.3,96.5
			c32,64.3,45.9,147,39,232.8c-0.8,9.8-3.5,33.8-7.1,56.7c-7,44.4-11.4,47.5-14.1,49.3C706,486.9,704.5,487.3,703,487.3z"/>
	</g>
	<g>
		<path fill="#531516" d="M541.7,199.5l3.7,4.8c2.3,3,2.2,7.3-0.5,9.8c-3.1,2.9-8,2.5-10.5-0.9l-4-5.2c-1.9-2.5-5.5-3-8-1.1l0,0
			c-2.5,1.9-3,5.5-1.1,8l3.6,4.7c5.7,7.5,16.2,10,24.3,5.3c9.8-5.7,12.2-18.6,5.5-27.3l-4-5.2c-1.9-2.5-5.5-3-8-1.1l0,0
			C540.3,193.4,539.8,197,541.7,199.5z"/>
	</g>
	<g>
		<path fill="#531516" d="M515.2,193.7l3.7,4.8c2.3,3,2.2,7.3-0.5,9.8c-3.1,2.9-8,2.5-10.5-0.9l-4-5.2c-1.9-2.5-5.5-3-8-1.1v0
			c-2.5,1.9-3,5.5-1.1,8l3.6,4.7c5.7,7.5,16.2,10,24.3,5.3c9.8-5.7,12.2-18.6,5.5-27.3l-4-5.2c-1.9-2.5-5.5-3-8-1.1l0,0
			C513.8,187.6,513.3,191.2,515.2,193.7z"/>
	</g>
	<g>
		<path fill="#531516" d="M514.1,219.1l4,5.2c2.4,3.2,2.4,7.8-0.5,10.6c-3.4,3.2-8.6,2.7-11.4-0.9l-4.3-5.6
			c-2.1-2.7-5.9-3.2-8.6-1.1v0c-2.7,2.1-3.2,5.9-1.1,8.6l3.8,5c6.2,8.1,17.4,10.8,26.2,5.7c10.6-6.1,13.1-20,5.9-29.4l-4.3-5.6
			c-2.1-2.7-5.9-3.2-8.6-1.1v0C512.6,212.6,512.1,216.4,514.1,219.1z"/>
	</g>
	<g>
		<path fill="#531516" d="M558.4,177.1l3.9,5c2.3,3.1,2.3,7.6-0.5,10.2c-3.2,3-8.3,2.6-11-0.9l-4.1-5.4c-2-2.6-5.7-3.1-8.3-1.1v0
			c-2.6,2-3.1,5.7-1.1,8.3l3.7,4.9c5.9,7.8,16.8,10.4,25.2,5.5c10.2-5.9,12.7-19.3,5.7-28.4l-4.1-5.4c-2-2.6-5.7-3.1-8.3-1.1l0,0
			C556.9,170.8,556.4,174.5,558.4,177.1z"/>
	</g>
	<g>
		<path fill="#531516" d="M553.2,141.5l4.4,5.8c2.7,3.5,2.7,8.7-0.5,11.7c-3.7,3.5-9.5,2.9-12.5-1.1l-4.7-6.2
			c-2.3-3-6.5-3.6-9.4-1.3v0c-2.9,2.2-3.5,6.5-1.2,9.5l4.3,5.6c6.8,8.9,19.2,12,28.8,6.5c11.6-6.7,14.2-21.9,6.3-32.3l-4.7-6.2
			c-2.3-3-6.5-3.6-9.4-1.3l0,0C551.5,134.3,550.9,138.5,553.2,141.5z"/>
	</g>
	<g>
		<path fill="#531516" d="M699.7,195.4c-2.1,0-4.2-1.1-5.3-3.1c-27.9-48.5-60.8-61-61.1-61.1c-3.2-1.2-4.8-4.7-3.6-7.8
			c1.1-3.2,4.6-4.8,7.8-3.7c1.5,0.5,37.2,13.8,67.6,66.5c1.7,2.9,0.7,6.6-2.2,8.3C701.8,195.1,700.7,195.4,699.7,195.4z"/>
	</g>
	<g>
		<path fill="#531516" d="M639.5,439.8c-0.6,0-1.3-0.1-1.9-0.3c-3.2-1-5-4.5-3.9-7.7c16.3-50.1,46.3-177.7-26.1-279
			c-2-2.7-1.3-6.5,1.4-8.5c2.7-2,6.5-1.3,8.5,1.4c75.7,105.8,44.7,237.9,27.8,289.8C644.4,438.2,642,439.8,639.5,439.8z"/>
	</g>
	<g>
		<path fill="#531516" d="M609.7,416.3c-0.7,0-1.3-0.1-2-0.3c-3.2-1.1-4.9-4.6-3.8-7.8c26.3-76,21.7-165-12.3-238
			c-1.4-3.1-0.1-6.7,3-8.1c3.1-1.4,6.7-0.1,8.1,3c35.3,75.8,40,168.2,12.7,247.1C614.6,414.7,612.2,416.3,609.7,416.3z"/>
	</g>
	<g>
		<path fill="#531516" d="M577.6,396c-0.6,0-1.2-0.1-1.8-0.3c-3.2-1-5-4.4-4-7.6c18.2-59.2,32.4-129,0.3-198c-1.4-3.1-0.1-6.7,3-8.1
			c3.1-1.4,6.7-0.1,8.1,3c33.9,72.8,19.2,145.4,0.3,206.8C582.6,394.4,580.2,396,577.6,396z"/>
	</g>
	<g>
		<path fill="#531516" d="M546.8,371.9c-0.6,0-1.2-0.1-1.7-0.3c-3.2-1-5.1-4.4-4.1-7.6c17.5-58.6,21.5-108.9,12.7-158.2
			c-0.6-3.3,1.6-6.5,4.9-7.1c3.3-0.6,6.5,1.6,7.1,4.9c9.1,51.2,5,103.3-13.1,163.8C551.8,370.2,549.4,371.9,546.8,371.9z"/>
	</g>
	<g>
		<path fill="#531516" d="M488.7,334.6c-1.1,0-2.2-0.3-3.2-0.9c-2.9-1.8-3.7-5.6-1.9-8.4c12.1-19.3,27-49.3,28.8-82.6
			c0.2-3.4,3.1-5.9,6.4-5.8c3.4,0.2,5.9,3.1,5.8,6.4c-2,35.9-17.8,67.9-30.7,88.4C492.7,333.6,490.8,334.6,488.7,334.6z"/>
	</g>
	<g>
		<path fill="#FFFFFF" d="M610,335.4c0,0-5.8,41.4-10.3,52.3"/>
		<path fill="#531516" d="M599.8,392.7c-0.6,0-1.3-0.1-1.9-0.4c-2.6-1.1-3.8-4-2.8-6.6c3.5-8.5,8.3-39.7,9.9-51.1
			c0.4-2.8,2.9-4.7,5.7-4.3c2.8,0.4,4.7,2.9,4.3,5.7c-0.2,1.7-5.9,42.1-10.6,53.5C603.6,391.6,601.7,392.7,599.8,392.7z"/>
	</g>
	<g>
		<path fill="#FFFFFF" d="M643.5,331.4c0,0-2.6,24.6-5.4,36.4"/>
		<path fill="#531516" d="M638.1,372.9c-0.4,0-0.8,0-1.2-0.1c-2.7-0.6-4.4-3.4-3.8-6.1c2.7-11.4,5.3-35.6,5.3-35.8
			c0.3-2.8,2.8-4.8,5.6-4.5c2.8,0.3,4.8,2.8,4.5,5.6c-0.1,1-2.7,25-5.5,37.1C642.4,371.3,640.4,372.9,638.1,372.9z"/>
	</g>
	<g>
		<path fill="#FFFFFF" d="M652.9,179.7c0,0,6.6,23.8,8.3,35.9"/>
		<path fill="#531516" d="M659.3,226.6c-2.5,0-4.6-1.8-5-4.3c-1.7-11.6-8.1-35-8.2-35.3c-0.7-2.7,0.8-5.5,3.5-6.2
			c2.7-0.8,5.5,0.8,6.2,3.5c0.3,1,6.7,24.3,8.5,36.5c0.4,2.8-1.5,5.3-4.3,5.7C659.8,226.5,659.5,226.6,659.3,226.6z"/>
	</g>
	<g>
		<path fill="#531516" d="M592,97.9l4.1,5.4c2.5,3.3,2.4,8.1-0.7,10.9c-3.5,3.2-8.9,2.6-11.7-1.1l-4.3-5.8c-2.1-2.8-6-3.4-8.8-1.3v0
			c-2.8,2.1-3.4,6-1.3,8.8l3.9,5.2c6.2,8.3,17.8,11.3,26.9,6.2c11-6.2,13.7-20.4,6.4-30.2l-4.3-5.8c-2.1-2.8-6-3.4-8.8-1.3v0
			C590.5,91.1,589.9,95.1,592,97.9z"/>
	</g>
	<g>
		<path fill="#531516" d="M573.3,120.3l4.1,5.4c2.5,3.3,2.4,8.1-0.7,10.9c-3.5,3.2-8.9,2.6-11.7-1.1l-4.3-5.8
			c-2.1-2.8-6-3.4-8.8-1.3l0,0c-2.8,2.1-3.4,6-1.3,8.8l3.9,5.2c6.2,8.3,17.8,11.3,26.9,6.2c11-6.2,13.7-20.4,6.4-30.2l-4.3-5.8
			c-2.1-2.8-6-3.4-8.8-1.3v0C571.7,113.5,571.2,117.5,573.3,120.3z"/>
	</g>
	<g>
		<path fill="#531516" d="M383,293c0.2-0.4-3.3-20.3,4.3-34.9c0,0,0.1,15.3,3.2,17.5c3.1,2.2,28.9-45.7,28.9-45.7s-7.9,19,1.3,18.4
			l2.1,10.7L388.5,297L383,293z"/>
	</g>
	<g>
		<path d="M400.2,425.6"/>
	</g>
	<g>
		<path fill="none" stroke="#531516" stroke-width="5.3242" stroke-linecap="round" stroke-miterlimit="10" d="M313.3,427.8"/>
	</g>
	<g>
		<path fill="#531516" d="M486.6,554.7H311c-3.4,0-6.2-2.8-6.2-6.2s2.8-6.2,6.2-6.2h175.5c3.4,0,6.2,2.8,6.2,6.2
			S490,554.7,486.6,554.7z"/>
	</g>
	<g>
		<path fill="#531516" d="M453.9,596.2H342.5c-4.3,0-7.8-3.5-7.8-7.8s3.5-7.8,7.8-7.8h111.3c4.3,0,7.8,3.5,7.8,7.8
			S458.2,596.2,453.9,596.2z"/>
	</g>
	<g>
		<path fill="#531516" d="M414.3,632.9h-33.4c-3.4,0-6.2-2.8-6.2-6.2s2.8-6.2,6.2-6.2h33.4c3.4,0,6.2,2.8,6.2,6.2
			S417.7,632.9,414.3,632.9z"/>
	</g>
	<g>
		<path fill="#531516" d="M395.8,579.2h-11.4c-3.1,0-5.7-2.5-5.7-5.7s2.5-5.7,5.7-5.7h11.4c3.1,0,5.7,2.5,5.7,5.7
			S398.9,579.2,395.8,579.2z"/>
	</g>
	<g>
		<path fill="#531516" d="M434.1,567.5h-16.7c-3.1,0-5.7-2.5-5.7-5.7s2.5-5.7,5.7-5.7h16.7c3.1,0,5.7,2.5,5.7,5.7
			S437.3,567.5,434.1,567.5z"/>
	</g>
	<g>
		<path fill="#531516" d="M474.9,570h-16.7c-3.1,0-5.7-2.5-5.7-5.7c0-3.1,2.5-5.7,5.7-5.7h16.7c3.1,0,5.7,2.5,5.7,5.7
			C480.6,567.5,478,570,474.9,570z"/>
	</g>
	<g>
		<path fill="#531516" d="M359.2,571.8h-33.4c-3.1,0-5.7-2.5-5.7-5.7c0-3.1,2.5-5.7,5.7-5.7h33.4c3.1,0,5.7,2.5,5.7,5.7
			C364.9,569.2,362.4,571.8,359.2,571.8z"/>
	</g>
	<g>
		<path fill="#531516" d="M430.3,617.1H366c-3.4,0-6.2-2.8-6.2-6.2c0-3.4,2.8-6.2,6.2-6.2h64.3c3.4,0,6.2,2.8,6.2,6.2
			C436.5,614.3,433.7,617.1,430.3,617.1z"/>
	</g>
	<g>
		<path fill="#E2A060" d="M274.1,196.8c0,0-2.8,3.2-6.1,5.1c-9.8,5.5-40.6,16.9-26.4,48.8c0,0,26-21.1,47.2-20.8
			c31.2,0.4,55.5,33.8,57.3,35.7c1.8,1.8,52-47.5,24.9-90c-3.4-5.3-7.5-8.8-8.1-9.3c-16.4-13.2-39.7-7.2-44.8-5.7
			c0.3-1.6,1-6.3-1.5-11.2c-1.1-2-2.7-4.1-5.2-5.9c-11.6-8.3-20.4,1.3-27.1,8.4c-8.2,8.6-6.1,8.7-16.6,15
			c-5.7,3.4-27.4,10.3-23.5,26.3C247.5,207.1,274.1,196.8,274.1,196.8z"/>
	</g>
	<g>
		<path fill="#F6D5C4" d="M369.6,178.6c0,0-28-19.7-51.1,0.6S264,210.4,264,210.4s34.8-28.9,45.7-40.1
			C320.6,159.2,353,150.1,369.6,178.6z"/>
	</g>
	<g>
		<path fill="#EFCDA2" d="M263.5,208.5c0,0,8.7,14.4,4.7,22.5c-4,8.2-24.8,15-24.8,15S238.4,215,263.5,208.5z"/>
	</g>
	<g>
		<path fill="#AF6A27" d="M323.9,243.6c0,0,49.3-11.2,34-75.9c0,0,25.4,16.2,17.3,50.4c-8.1,34.3-29,47.5-29,47.5L323.9,243.6z"/>
	</g>
	<g>
		<path fill="#531516" d="M328.9,194.3c0,5.4-8.6,13.3-14,13.3s-9.8-4.4-9.8-9.8c0-5.4,6.7-9.8,12.1-9.8S328.9,188.9,328.9,194.3z"
			/>
	</g>
	<g>
		<path fill="#ECB799" d="M260.2,211.2c0,0,9,8.2,7.5,20.9"/>
		<path fill="#531516" d="M267.7,238.2c-0.2,0-0.5,0-0.7,0c-3.3-0.4-5.7-3.4-5.3-6.8c1.1-9.3-5.5-15.6-5.6-15.6
			c-2.5-2.3-2.7-6.1-0.4-8.6c2.3-2.5,6.1-2.7,8.6-0.4c0.5,0.4,11.4,10.5,9.5,26.1C273.4,235.9,270.8,238.2,267.7,238.2z"/>
	</g>
	<g>
		<path fill="#EF672B" d="M287.2,152c0,0-7.6,11.4-16.7,16.8c-9.1,5.3-27.3,13.7-22.1,21.7s22.4,7.2,43-6.8
			c20.5-14,24.8-20.1,23.1-28.2C312.8,147.3,304.2,136.3,287.2,152z"/>
	</g>
	<g>
		<path fill="#A64A38" d="M298.9,139.8c0,0,9.6,26.4-22.9,45.7c0,0-19.4,12.1-25.7,11.3c0,0-0.2,1.7,11.8,0.8
			c12-0.9,54.1-25.3,54.7-36.6S304.6,139.4,298.9,139.8z"/>
	</g>
	<g>
		<path fill="#531516" d="M346.3,271.8h-2.5l-1.9-1.8c-0.2-0.2-0.8-0.8-1.5-1.8c-21.7-26.3-40-32-51.6-32.2l-0.3,0
			c-18.7,0-42.7,19.3-43,19.5l-6.2,5l-3.2-7.3c-10.8-24.3,1.2-39,13.1-47.5c-7.8-2.2-10.2-8.1-10.9-10.9c-4.4-18.2,14-27,22.9-31.3
			c1.4-0.7,2.8-1.3,3.5-1.7c6.5-3.9,7.3-4.9,9.9-7.9c1.3-1.5,2.9-3.4,5.4-6.1l0.3-0.3c5.3-5.6,12.5-13.2,22.3-13.2
			c4.3,0,8.5,1.5,12.5,4.3c5.3,3.8,7.9,8.5,9,13c3.3-0.8,7-1.2,10.9-1.2c8.2,0,28.6,2.1,41.3,21.9c15.9,24.9,7.8,51-1.7,68.5
			C367.5,253.5,353.1,271.8,346.3,271.8z M288.4,223.8l0.5,0c13.7,0.2,34.7,6.2,58.2,33.5c6.5-6.4,19.9-22.8,24.3-42
			c3.1-13.4,1.2-25.7-5.6-36.4c-9.4-14.7-24.8-16.3-31-16.3c-6.9,0-11.6,1.7-13,2.8l-14.2,10.9l4.5-17.3c0.1-0.6,1.3-6.5-4.4-10.5
			c-1.9-1.4-3.7-2.1-5.4-2.1c-4.6,0-9.5,5.2-13.5,9.4l-0.3,0.3c-2.3,2.4-3.8,4.1-4.9,5.5c-3.3,3.9-5,5.7-12.9,10.5
			c-1.2,0.7-2.7,1.5-4.5,2.3c-11.3,5.4-18,10.3-16.3,17.4c0.2,0.8,0.6,2.5,6.1,2.5c5.9,0,13.4-2.4,15.7-3.3l22.8-8.8l-16,18.5
			c-0.4,0.4-3.6,4.1-7.8,6.4c-1,0.6-2.2,1.2-3.6,1.9c-13.6,7-26.3,15.2-22.7,31.8C254.3,234.4,272.2,223.8,288.4,223.8z"/>
	</g>
	<g>
		<path fill="#531516" d="M320.6,159.2c0,0-25,33.7-60.1,43.5"/>
		<path fill="#531516" d="M262.2,208.8l-3.4-12.3c32.5-9,56.4-40.8,56.7-41.1l10.2,7.6C324.7,164.4,299,198.6,262.2,208.8z"/>
	</g>
	<g>
		<path fill="#531516" d="M366.5,179.9c0,0,6.4,18.4-11,40.7c0,0,20.7-12.6,20.9-29.5L366.5,179.9z"/>
	</g>
</g>
</svg>